#N canvas 587 33 1106 976 10;
#X declare -lib mrpeach;
#X obj -10 -264 import mrpeach;
#X obj -11 -235 udpreceive 7890;
#X obj -11 -208 unpackOSC;
#X msg -9 30 start;
#X obj -9 7 bng 15 250 50 0 empty empty empty 17 7 0 10 -262144 -1
-1;
#X symbolatom 69 -29 0 0 0 0 - - -;
#X obj -9 159 readsf~ 4 1e+006;
#X obj 30 7 bng 15 250 50 0 empty empty empty 17 7 0 10 -262144 -1
-1;
#X msg 108 26 symbol open;
#X obj 107 81 list trim;
#X obj 44 132 list trim;
#X msg 44 27 set;
#X msg 276 25 open f2.wav;
#X obj 44 110 list append;
#X obj 108 55 list append;
#X obj 69 -5 s mySend1;
#X obj 197 26 r mySend1;
#X obj 69 -50 symbol;
#X obj -9 -82 trigger b b b symbol;
#X obj -11 -142 bng 15 250 50 0 empty play1 empty 17 7 0 10 -262144
-1 -1;
#X obj -9 214 throw~ leftaudioout;
#X obj 124 213 throw~ rightaudioout;
#X msg -11 -110 symbol f2.wav;
#X obj -9 186 *~ 1;
#X obj 54 184 *~ 1;
#X obj 695 332 dac~;
#X obj 563 252 catch~ leftaudioout;
#X obj 708 252 catch~ rightaudioout;
#X obj 563 303 s~ \$0-i1;
#X obj 708 300 s~ \$0-i2;
#X obj 631 304 *~ 1;
#X obj 771 300 *~ 1;
#X obj 683 181 vsl 15 90 0.0099 0.99 1 1 empty empty empty 0 -9 0 10
-262144 -1 -1 8900 1;
#X text 701 202 Volume Slider;
#X obj 562 277 hip~ 51;
#X obj 707 278 hip~ 51;
#X text 764 277 Low pass filter to eliminate any ground noise within
samples;
#X text 850 249 Receives audio from readplaysamples trigger system
;
#X msg 418 -192 47 118 117 48 44 105 48 48 48 48 126 0;
#X obj 419 -162 list split;
#X obj 520 -136 list trim;
#X floatatom 522 -60 5 0 0 0 - - -;
#X obj 521 -87 trigger f;
#X obj 87 -179 print unpacked;
#X obj 68 -207 print original;
#X obj 420 -110 list append;
#X msg 420 -137 set;
#X obj 354 -83 print originalbeforeroll;
#X obj 587 -137 print rollandend;
#X msg 520 -111;
#X msg 697 -196 set;
#X msg 666 -195 10;
#X obj 642 -54 list trim;
#X obj 640 -78 list append;
#X msg 644 -28;
#X msg 642 -102 set set;
#X obj 646 22 list trim;
#X obj 646 -3 list append;
#X msg 645 48;
#X obj 662 -225 bng 15 250 50 0 empty empty empty 17 7 0 10 -262144
-1 -1;
#X obj 265 -241 bng 15 250 50 0 empty empty empty 17 7 0 10 -262144
-1 -1;
#X obj 266 -218 trigger b b b b b;
#X msg 738 -196 0;
#X obj 663 -251 loadbang;
#X text 5 -146 Bang here to play audio (enter target file after 'symbol¨below)
;
#X text 85 -112 comment;
#X text 119 -83 Converts input into symbol and bangs;
#X text 137 -65 NB trigger fires right to left;
#X text 438 -260 Loadbang is used to reset and prepare the below. This
is our roll value extractor.;
#X text 287 -240 Click to run;
#X text 809 -66 The Zeros here replace the extracted end values;
#X msg 718 -230 \; pd dsp 1;
#X obj -10 -179 routeOSC /vc;
#X msg 871 -28 51 0;
#X obj 315 289 route 1 2 3 4 5 6 7;
#X obj 315 320 bng 15 250 50 0 empty empty empty 17 7 0 10 -262144
-1 -1;
#X obj 325 330 bng 15 250 50 0 empty empty empty 17 7 0 10 -262144
-1 -1;
#X obj 335 340 bng 15 250 50 0 empty empty empty 17 7 0 10 -262144
-1 -1;
#X obj 362 315 bng 15 250 50 0 empty empty empty 17 7 0 10 -262144
-1 -1;
#X obj 379 322 bng 15 250 50 0 empty empty empty 17 7 0 10 -262144
-1 -1;
#X obj 389 332 bng 15 250 50 0 empty empty empty 17 7 0 10 -262144
-1 -1;
#X obj 399 342 bng 15 250 50 0 empty empty empty 17 7 0 10 -262144
-1 -1;
#X floatatom 311 163 5 0 0 0 - - -;
#X obj 420 317 bng 15 250 50 0 empty empty empty 17 7 0 10 -262144
-1 -1;
#X text 237 379 last ouput is error \, ie non 1 to 7 value;
#X floatatom 314 259 5 1 7 0 - - -;
#X obj 314 231 int;
#X obj 313 185 * 100;
#X obj 315 209 / 14;
#X obj 523 -39 / 127;
#X obj 523 112 s 0to1 roll value;
#X obj 523 9 vsl 15 90 0.0099 0.99 1 1 empty empty empty 0 -9 0 10
-262144 -1 -1 8900 1;
#X obj 524 -14 change;
#X obj 682 110 r 0to1 roll value;
#X obj 197 107 r 0to1 roll value;
#X obj 681 158 spigot;
#X obj 312 139 spigot;
#X obj 806 111 routeOSC /vc;
#X obj 139 -116 s unpacked from myo;
#X obj 808 81 r unpacked from myo;
#X obj 352 50 r unpacked from myo;
#X obj 350 80 routeOSC /sc;
#X msg 351 106 1;
#X msg 418 103 0;
#X msg 807 137 1;
#X msg 874 134 0;
#X connect 1 0 2 0;
#X connect 1 0 44 0;
#X connect 1 0 39 0;
#X connect 1 0 60 0;
#X connect 2 0 43 0;
#X connect 2 0 72 0;
#X connect 2 0 98 0;
#X connect 3 0 6 0;
#X connect 4 0 3 0;
#X connect 5 0 15 0;
#X connect 6 0 23 0;
#X connect 6 1 24 0;
#X connect 6 2 24 0;
#X connect 6 3 23 0;
#X connect 7 0 8 0;
#X connect 7 0 11 0;
#X connect 7 0 12 0;
#X connect 8 0 14 0;
#X connect 9 0 13 1;
#X connect 10 0 12 0;
#X connect 11 0 13 0;
#X connect 12 0 6 0;
#X connect 13 0 10 0;
#X connect 14 0 9 0;
#X connect 16 0 14 1;
#X connect 17 0 5 0;
#X connect 18 0 4 0;
#X connect 18 1 7 0;
#X connect 18 2 17 0;
#X connect 18 3 17 1;
#X connect 19 0 22 0;
#X connect 22 0 18 0;
#X connect 23 0 20 0;
#X connect 24 0 21 0;
#X connect 26 0 34 0;
#X connect 27 0 35 0;
#X connect 30 0 25 0;
#X connect 31 0 25 1;
#X connect 32 0 31 1;
#X connect 32 0 30 1;
#X connect 34 0 28 0;
#X connect 34 0 30 0;
#X connect 35 0 29 0;
#X connect 35 0 31 0;
#X connect 38 0 39 0;
#X connect 39 0 46 0;
#X connect 39 0 47 0;
#X connect 39 0 53 1;
#X connect 39 1 45 1;
#X connect 39 1 48 0;
#X connect 40 0 49 0;
#X connect 41 0 89 0;
#X connect 42 0 41 0;
#X connect 45 0 40 0;
#X connect 46 0 45 0;
#X connect 49 0 42 0;
#X connect 50 0 49 0;
#X connect 50 0 54 0;
#X connect 50 0 58 0;
#X connect 51 0 39 1;
#X connect 52 0 54 0;
#X connect 53 0 52 0;
#X connect 54 0 57 0;
#X connect 55 0 53 0;
#X connect 56 0 58 0;
#X connect 57 0 56 0;
#X connect 58 0 2 0;
#X connect 59 0 51 0;
#X connect 59 0 50 0;
#X connect 59 0 62 0;
#X connect 59 0 73 0;
#X connect 60 0 61 0;
#X connect 61 0 58 0;
#X connect 61 1 54 0;
#X connect 61 2 55 0;
#X connect 61 3 49 0;
#X connect 62 0 41 0;
#X connect 63 0 59 0;
#X connect 63 0 71 0;
#X connect 72 0 19 0;
#X connect 73 0 57 1;
#X connect 74 0 75 0;
#X connect 74 1 76 0;
#X connect 74 2 77 0;
#X connect 74 3 78 0;
#X connect 74 4 79 0;
#X connect 74 5 80 0;
#X connect 74 6 81 0;
#X connect 74 7 83 0;
#X connect 82 0 87 0;
#X connect 85 0 74 0;
#X connect 86 0 85 0;
#X connect 87 0 88 0;
#X connect 88 0 86 0;
#X connect 89 0 92 0;
#X connect 91 0 90 0;
#X connect 92 0 91 0;
#X connect 93 0 95 0;
#X connect 94 0 96 0;
#X connect 95 0 32 0;
#X connect 96 0 82 0;
#X connect 97 0 104 0;
#X connect 97 1 105 0;
#X connect 99 0 97 0;
#X connect 100 0 101 0;
#X connect 101 0 102 0;
#X connect 101 1 103 0;
#X connect 102 0 96 1;
#X connect 103 0 96 1;
#X connect 104 0 95 1;
#X connect 105 0 95 1;
