#N canvas 0 0 1914 976 10;
#X declare -lib mrpeach;
#X obj 277 -177 import mrpeach;
#X obj 273 -138 udpreceive 7890;
#X obj 272 -108 unpackOSC;
#X symbolatom 270 -26 10 0 0 0 - - -;
#X obj 378 14 print RCV;
#X obj 523 417 change;
#X msg -19 375 start;
#X obj -19 321 bng 15 250 50 0 empty empty empty 17 7 0 10 -262144
-1 -1;
#X symbolatom 59 285 0 0 0 0 - - -;
#X obj -19 523 readsf~ 4 1e+006;
#X obj 20 321 bng 15 250 50 0 empty empty empty 17 7 0 10 -262144 -1
-1;
#X msg 98 371 symbol open;
#X obj 97 426 list trim;
#X obj 34 477 list trim;
#X msg 34 372 set;
#X msg 266 370 open f2.wav;
#X obj 34 455 list append;
#X obj 98 400 list append;
#X obj 59 309 s mySend1;
#X obj 187 371 r mySend1;
#X obj 59 264 symbol;
#X obj -19 232 trigger b b b symbol;
#X obj -19 148 bng 15 250 50 0 empty play1 empty 17 7 0 10 -262144
-1 -1;
#X obj -19 116 r myPlay1;
#X obj -18 677 throw~ leftaudioout;
#X obj 115 676 throw~ rightaudioout;
#X msg -19 180 symbol f2.wav;
#X text 56 112 Recieves 'bang' message from Java to begin playing note
when key is touched;
#X text 77 178 symbol + filename of audio sample;
#X text 117 231 Converts filename into bang and symbol messages;
#X obj -19 631 *~ 1;
#X obj 44 629 *~ 1;
#X obj 576 234 dac~;
#X obj 444 112 catch~ leftaudioout;
#X obj 589 112 catch~ rightaudioout;
#X obj 444 170 s~ \$0-i1;
#X obj 589 167 s~ \$0-i2;
#X obj 512 171 *~ 1;
#X obj 652 167 *~ 1;
#X obj 713 166 vsl 15 90 0.0099 0.99 1 1 empty empty empty 0 -9 0 10
-262144 -1 -1 8900 1;
#X text 729 165 Volume Slider;
#X obj 443 137 hip~ 51;
#X obj 588 138 hip~ 51;
#X text 645 137 Low pass filter to eliminate any ground noise within
samples;
#X text 731 109 Receives audio from readplaysamples trigger system
;
#X obj 270 -65 routeOSC /vu;
#X floatatom 715 59 5 0 0 0 - - -;
#X obj 716 -1 / 126;
#X connect 1 0 2 0;
#X connect 1 0 4 0;
#X connect 2 0 45 0;
#X connect 3 0 4 0;
#X connect 6 0 9 0;
#X connect 7 0 6 0;
#X connect 8 0 18 0;
#X connect 9 0 30 0;
#X connect 9 1 31 0;
#X connect 9 2 31 0;
#X connect 9 3 30 0;
#X connect 10 0 11 0;
#X connect 10 0 14 0;
#X connect 10 0 15 0;
#X connect 11 0 17 0;
#X connect 12 0 16 1;
#X connect 13 0 15 0;
#X connect 14 0 16 0;
#X connect 15 0 9 0;
#X connect 16 0 13 0;
#X connect 17 0 12 0;
#X connect 19 0 17 1;
#X connect 20 0 8 0;
#X connect 21 0 7 0;
#X connect 21 1 10 0;
#X connect 21 2 20 0;
#X connect 21 3 20 1;
#X connect 22 0 26 0;
#X connect 23 0 22 0;
#X connect 26 0 21 0;
#X connect 30 0 24 0;
#X connect 31 0 25 0;
#X connect 33 0 41 0;
#X connect 34 0 42 0;
#X connect 37 0 32 0;
#X connect 38 0 32 1;
#X connect 39 0 38 1;
#X connect 39 0 37 1;
#X connect 41 0 35 0;
#X connect 41 0 37 0;
#X connect 42 0 36 0;
#X connect 42 0 38 0;
#X connect 45 0 3 0;
#X connect 45 0 22 0;
#X connect 45 0 47 0;
#X connect 46 0 39 0;
#X connect 47 0 46 0;
