#N canvas 400 54 1280 699 10;
#X declare -lib mrpeach;
#X declare -lib zexy;
#X obj 19 11 import mrpeach;
#X obj 498 48 unpackOSC;
#X obj 498 100 s2l;
#X obj 497 130 unpack s s f;
#X obj 498 75 symbol;
#X symbolatom 460 186 10 0 0 0 - - -;
#X floatatom 531 186 5 0 0 0 - - -;
#X obj 584 46 import zexy;
#X msg 498 23 47 97 110 111 32 53 10 0;
#X obj 531 161 atoi;
#X text 120 265 comment;
#X obj 18 390 cnv 15 100 100 empty empty OSC_to_ASCII_translation 20
12 0 14 -233017 -66577 0;
#X obj 25 441 packOSC;
#X obj 269 387 cnv 15 400 170 empty empty ASCII_to_OSC_translation
20 12 0 14 -233017 -66577 0;
#X obj 320 492 unpackOSC;
#X text 294 422 ASCII code(Address) + zeros(1:4) + \, i(format) + zeros(5)
+ number;
#X text 90 523 (check the output window);
#X obj 25 468 print ASCII;
#X obj 320 525 print OSC;
#X text 281 405 comment;
#X msg 26 415 /foo 3;
#X msg 319 463 47 102 111 111 0 0 0 0 44 105 0 0 0 0 0 3;
#X obj 467 532 routeOSC /foo;
#X obj 542 593 bng 15 250 50 0 empty empty empty 17 7 0 10 -262144
-1 -1;
#X floatatom 467 591 5 0 0 0 - - -;
#X obj 176 56 udpreceive 7890;
#X obj 175 86 unpackOSC;
#X symbolatom 173 168 10 0 0 0 - - -;
#X obj 40 229 print RCV;
#X obj 223 239 change;
#X msg 822 403 start;
#X obj 822 349 bng 15 250 50 0 empty empty empty 17 7 0 10 -262144
-1 -1;
#X symbolatom 900 313 0 0 0 0 - - -;
#X obj 822 551 readsf~ 4 1e+06;
#X obj 861 349 bng 15 250 50 0 empty empty empty 17 7 0 10 -262144
-1 -1;
#X msg 939 399 symbol open;
#X obj 938 454 list trim;
#X obj 875 505 list trim;
#X msg 875 400 set;
#X msg 1107 398 open f2.wav;
#X obj 875 483 list append;
#X obj 939 428 list append;
#X obj 900 337 s mySend1;
#X obj 1028 399 r mySend1;
#X obj 900 292 symbol;
#X obj 822 260 trigger b b b symbol;
#X obj 822 176 bng 15 250 50 0 empty play1 empty 17 7 0 10 -262144
-1 -1;
#X obj 822 144 r myPlay1;
#X obj 823 705 throw~ leftaudioout;
#X obj 956 704 throw~ rightaudioout;
#X msg 822 208 symbol f2.wav;
#X text 897 140 Recieves 'bang' message from Java to begin playing
note when key is touched;
#X text 918 206 symbol + filename of audio sample;
#X text 958 259 Converts filename into bang and symbol messages;
#X obj 822 659 *~ 1;
#X obj 885 657 *~ 1;
#X obj 1417 262 dac~;
#X obj 1285 140 catch~ leftaudioout;
#X obj 1430 140 catch~ rightaudioout;
#X obj 1285 198 s~ \$0-i1;
#X obj 1430 195 s~ \$0-i2;
#X obj 1353 199 *~ 1;
#X obj 1493 195 *~ 1;
#X obj 1554 194 vsl 15 90 0.0099 0.99 1 1 empty empty empty 0 -9 0
10 -262144 -1 -1 8900 1;
#X text 1570 193 Volume Slider;
#X obj 1284 165 hip~ 51;
#X obj 1429 166 hip~ 51;
#X text 1486 165 Low pass filter to eliminate any ground noise within
samples;
#X text 1572 137 Receives audio from readplaysamples trigger system
;
#X obj 277 170 print;
#X obj 12 56;
#X obj 173 129 routeOSC /vu;
#X connect 1 0 4 0;
#X connect 2 0 3 0;
#X connect 3 0 5 0;
#X connect 3 1 9 0;
#X connect 4 0 2 0;
#X connect 8 0 1 0;
#X connect 9 0 6 0;
#X connect 12 0 17 0;
#X connect 14 0 18 0;
#X connect 14 0 22 0;
#X connect 20 0 12 0;
#X connect 21 0 14 0;
#X connect 22 0 24 0;
#X connect 22 1 23 0;
#X connect 25 0 26 0;
#X connect 25 0 69 0;
#X connect 26 0 71 0;
#X connect 27 0 28 0;
#X connect 30 0 33 0;
#X connect 31 0 30 0;
#X connect 32 0 42 0;
#X connect 33 0 54 0;
#X connect 33 1 55 0;
#X connect 33 2 55 0;
#X connect 33 3 54 0;
#X connect 34 0 35 0;
#X connect 34 0 38 0;
#X connect 34 0 39 0;
#X connect 35 0 41 0;
#X connect 36 0 40 1;
#X connect 37 0 39 0;
#X connect 38 0 40 0;
#X connect 39 0 33 0;
#X connect 40 0 37 0;
#X connect 41 0 36 0;
#X connect 43 0 41 1;
#X connect 44 0 32 0;
#X connect 45 0 31 0;
#X connect 45 1 34 0;
#X connect 45 2 44 0;
#X connect 45 3 44 1;
#X connect 46 0 50 0;
#X connect 47 0 46 0;
#X connect 50 0 45 0;
#X connect 54 0 48 0;
#X connect 55 0 49 0;
#X connect 57 0 65 0;
#X connect 58 0 66 0;
#X connect 61 0 56 0;
#X connect 62 0 56 1;
#X connect 63 0 62 1;
#X connect 63 0 61 1;
#X connect 65 0 59 0;
#X connect 65 0 61 0;
#X connect 66 0 60 0;
#X connect 66 0 62 0;
#X connect 71 0 27 0;
#X connect 71 0 46 0;
#X connect 71 0 69 0;
