#N canvas 683 82 683 686 10;
#X declare -lib mrpeach;
#X obj 8 -48 import mrpeach;
#X obj 103 180 print;
#X obj 138 -8 unpackOSC;
#X obj 138 -44 udpreceive 10.42.0.1 9000;
#X obj 164 58 select 1;
#X obj 164 87 s vu;
#X obj 186 111 s vd;
#X obj 599 230 bng 20 250 50 0 empty vu + 7 10 2 12 -228856 -128992
-1;
#X obj 599 261 bng 20 250 50 0 empty vd _ 7 5 2 12 -228856 -128992
-1;
#X obj 223 86 s vm;
#X obj 630 248 tgl 15 0 empty vm M 4 7 2 10 -228856 -86277 -1 0 1;
#X obj 548 182 bng 20 250 50 0 empty p1 P1 4 11 2 12 -228856 -128992
-1;
#X obj 574 182 bng 20 250 50 0 empty p2 P2 4 11 2 12 -228856 -128992
-1;
#X obj 600 181 bng 20 250 50 0 empty p3 P3 4 11 2 12 -228856 -128992
-1;
#X obj 626 181 bng 20 250 50 0 empty p4 P4 4 11 2 12 -228856 -128992
-1;
#X obj 262 86 s p1;
#X obj 285 111 s p2;
#X obj 308 133 s p3;
#X obj 331 153 s p4;
#X obj 262 58 select 1 2 3;
#X obj 401 93 int;
#X obj 401 69 expr ($f1 + 0.1)* 7;
#X obj 571 211 vradio 20 1 0 7 empty source empty 0 -8 0 10 -228856
-1 -1 3;
#X text 548 210 TV;
#X text 505 230 Microphone;
#X text 549 271 FM;
#X text 532 249 Music;
#X text 527 291 T-coil;
#X text 543 310 Aux;
#X text 506 330 Telephone;
#X obj 401 169 s source;
#X obj 401 245 r source;
#X obj 401 273 print;
#X obj 488 -78 vsl 15 128 0 1 0 0 empty empty empty 0 -9 0 10 -262144
-1 -1 5800 1;
#X msg 401 116 set \$1;
#X msg 401 145 3;
#X obj 164 35 routeOSC /volume /vmute /preset /setsource /source;
#X obj 342 101 bng 15 250 50 0 empty empty empty 17 7 0 10 -262144
-1 -1;
#X text 430 94 need to check if source is precise;
#X connect 2 0 1 0;
#X connect 2 0 36 0;
#X connect 3 0 2 0;
#X connect 4 0 5 0;
#X connect 4 1 6 0;
#X connect 19 0 15 0;
#X connect 19 1 16 0;
#X connect 19 2 17 0;
#X connect 19 3 18 0;
#X connect 20 0 34 0;
#X connect 21 0 20 0;
#X connect 31 0 32 0;
#X connect 33 0 21 0;
#X connect 34 0 35 0;
#X connect 35 0 30 0;
#X connect 36 0 4 0;
#X connect 36 1 9 0;
#X connect 36 2 19 0;
#X connect 36 3 37 0;
#X connect 36 4 21 0;
#X connect 37 0 35 0;
