#N canvas 683 82 683 686 10;
#X declare -lib mrpeach;
#X declare -lib zexy;
#X obj 19 11 import mrpeach;
#X obj 12 56 udpreceive 7890;
#X obj 498 48 unpackOSC;
#X obj 498 100 s2l;
#X obj 497 130 unpack s s f;
#X obj 498 75 symbol;
#X symbolatom 460 186 10 0 0 0 - - -;
#X floatatom 531 186 5 0 0 0 - - -;
#X obj 584 46 import zexy;
#X obj 531 161 atoi;
#X text 120 265 comment;
#X obj 12 86 print RCV;
#X obj 18 465 cnv 15 100 100 empty empty OSC_to_ASCII_translation 20
12 0 14 -233017 -66577 0;
#X obj 25 516 packOSC;
#X obj 269 462 cnv 15 400 170 empty empty ASCII_to_OSC_translation
20 12 0 14 -233017 -66577 0;
#X obj 320 567 unpackOSC;
#X text 294 497 ASCII code(Address) + zeros(1:4) + \, i(format) + zeros(5)
+ number;
#X text 90 598 (check the output window);
#X obj 25 543 print ASCII;
#X obj 320 600 print OSC;
#X text 281 480 comment;
#X msg 26 490 /foo 3;
#X msg 319 538 47 102 111 111 0 0 0 0 44 105 0 0 0 0 0 3;
#X obj 389 589 routeOSC /foo;
#X obj 464 614 bng 15 250 50 0 empty empty empty 17 7 0 10 -262144
-1 -1;
#X floatatom 389 612 5 0 0 0 - - -;
#X obj 101 86 unpackOSC;
#X obj 101 114 routeOSC /sf /sb /vm /of /ob /vu /vd /ll /ul;
#X obj 101 142 bng 15 250 50 0 empty empty empty 17 7 0 10 -262144
-1 -1;
#X obj 131 152 bng 15 250 50 0 empty empty empty 17 7 0 10 -262144
-1 -1;
#X obj 156 169 bng 15 250 50 0 empty empty empty 17 7 0 10 -262144
-1 -1;
#X obj 192 185 bng 15 250 50 0 empty empty empty 17 7 0 10 -262144
-1 -1;
#X obj 215 202 bng 15 250 50 0 empty empty empty 17 7 0 10 -262144
-1 -1;
#X obj 241 208 bng 15 250 50 0 empty empty empty 17 7 0 10 -262144
-1 -1;
#X obj 264 217 bng 15 250 50 0 empty empty empty 17 7 0 10 -262144
-1 -1;
#X obj 292 234 bng 15 250 50 0 empty empty empty 17 7 0 10 -262144
-1 -1;
#X obj 333 248 bng 15 250 50 0 empty empty empty 17 7 0 10 -262144
-1 -1;
#X obj 362 261 bng 15 250 50 0 empty empty empty 17 7 0 10 -262144
-1 -1;
#X obj 655 299 routeOSC /foo;
#X floatatom 728 345 5 0 0 0 - - -;
#X symbolatom 641 348 10 0 0 0 - - -;
#X obj 649 253 packOSC;
#X obj 579 299 print;
#X msg 651 201 /fo 33;
#X msg 332 368 47 102 111 0 44 105 0 0 0 0 0 51 51;
#X msg 498 24 47 102 111 0 51 51 51 0;
#X obj 105 411 print;
#X obj 141 341 unpackOSC;
#X obj 141 367 routeOSC /fo;
#X msg 141 317 47 102 111 0 52 51 51 0;
#X symbolatom 157 414 10 0 0 0 - - -;
#X floatatom 235 417 5 0 0 0 - - -;
#X connect 1 0 11 0;
#X connect 1 0 26 0;
#X connect 2 0 5 0;
#X connect 3 0 4 0;
#X connect 4 0 6 0;
#X connect 4 1 9 0;
#X connect 5 0 3 0;
#X connect 9 0 7 0;
#X connect 13 0 18 0;
#X connect 15 0 19 0;
#X connect 15 0 23 0;
#X connect 21 0 13 0;
#X connect 22 0 15 0;
#X connect 23 0 25 0;
#X connect 23 1 24 0;
#X connect 26 0 27 0;
#X connect 27 0 28 0;
#X connect 27 1 29 0;
#X connect 27 2 30 0;
#X connect 27 3 31 0;
#X connect 27 4 32 0;
#X connect 27 5 33 0;
#X connect 27 6 34 0;
#X connect 27 7 35 0;
#X connect 27 8 36 0;
#X connect 27 9 37 0;
#X connect 38 0 39 0;
#X connect 38 0 40 0;
#X connect 41 0 38 0;
#X connect 41 0 42 0;
#X connect 43 0 41 0;
#X connect 45 0 2 0;
#X connect 47 0 48 0;
#X connect 48 0 46 0;
#X connect 48 0 50 0;
#X connect 48 0 51 0;
#X connect 49 0 47 0;
