#N canvas 683 454 683 314 10;
#X declare -lib mrpeach;
#X obj 19 11 import mrpeach;
#X obj 35 56 udpreceive 7890;
#X obj 35 207 print;
#X obj 45 85 unpackOSC;
#X obj 80 205 print OSC;
#X obj 48 110 routeOSC /fs;
#X obj 45 166 tgl 15 0 empty empty empty 17 7 0 10 -262144 -1 -1 0
1;
#X floatatom 46 137 5 0 0 0 - - -;
#X connect 1 0 3 0;
#X connect 3 0 5 0;
#X connect 3 0 4 0;
#X connect 5 0 7 0;
#X connect 7 0 6 0;
