#N canvas 506 25 650 572 10;
#X declare -lib mrpeach;
#X obj 130 -255 cnv 15 375 130 empty empty empty 20 12 0 14 -204786
-66577 0;
#X text 125 -263;
#X text 138 -251 This patch plays the audio from (at present) 4 different
inputs simultaneously. To select which audio to hear \, choose a source
from the radio object (a number from 0-3). Each input/audio player
will loop it's audio file until it receives the global stop command.
Each audio player has it's own volume receive which takes input 0 as
minimum volume and 1 as max (if we decide to give each source this
function?). There is also a master volume which takes the same min/max
values.;
#X obj -93 -255 cnv 15 175 175 empty empty empty 20 12 0 14 -261234
-66577 0;
#X obj -78 -106 s global_stop;
#X obj -78 -128 bng 15 250 50 0 empty empty empty 17 7 0 10 -258113
-1 -1;
#X msg -81 -221 \; pd dsp \$1;
#X obj -81 -246 tgl 15 0 empty empty empty 17 7 0 10 -204786 -1 -1
1 1;
#X text -54 -248 Turn DSP On/Off;
#X text -56 -128 Stop all audio files;
#X obj -81 -176 bng 15 250 50 0 empty empty empty 17 7 0 10 -4034 -1
-1;
#X obj -81 -154 s global_start;
#X text -59 -176 Start all audio files;
#X obj -68 -35 cnv 15 115 310 empty empty empty 20 12 0 14 -204800
-66577 0;
#X text -45 149 Audio Players;
#X obj -30 249 dac~;
#X obj -58 -14 vradio 25 1 0 4 empty input_select Audio_Select 0 -8
0 10 -262130 -1 -1 0;
#N canvas 485 106 695 584 Audio 0;
#N canvas 367 22 369 393 audio_in_out 0;
#X obj 143 72 readsf~ 2;
#X msg 143 44 open audio_in_out_s.wav;
#X msg 68 37 start;
#X msg -24 35 stop;
#X obj 194 97 bng 15 250 50 0 empty empty empty 17 7 0 10 -262144 -1
-1;
#X obj 184 213 line~;
#X obj 168 247 *~;
#X obj 144 246 *~;
#X obj 184 187 r to_line_1;
#X msg 194 120 \; pd dsp 1 \; to_line_1 0 \, 1 500 \; rpt_audio_1 bang
;
#X obj 68 -9 r rpt_audio_1;
#X obj 68 14 t b b;
#X obj 143 341 outlet~;
#X obj 168 314 outlet~;
#X obj -24 13 r global_stop;
#X obj 70 190 r volume_1;
#X obj 216 95 r global_start;
#X connect 0 0 7 0;
#X connect 0 1 6 0;
#X connect 0 2 4 0;
#X connect 1 0 0 0;
#X connect 2 0 0 0;
#X connect 3 0 0 0;
#X connect 4 0 9 0;
#X connect 5 0 6 1;
#X connect 5 0 7 1;
#X connect 6 0 13 0;
#X connect 7 0 12 0;
#X connect 8 0 5 0;
#X connect 10 0 11 0;
#X connect 11 0 2 0;
#X connect 11 1 1 0;
#X connect 14 0 3 0;
#X connect 15 0 7 0;
#X connect 15 0 6 0;
#X connect 16 0 9 0;
#X restore 350 102 pd audio_in_out;
#N canvas 0 23 369 393 microphone 0;
#X obj 143 72 readsf~ 2;
#X msg 68 37 start;
#X msg -24 35 stop;
#X obj 194 97 bng 15 250 50 0 empty empty empty 17 7 0 10 -262144 -1
-1;
#X obj 184 213 line~;
#X obj 168 247 *~;
#X obj 144 246 *~;
#X obj 68 14 t b b;
#X obj 143 341 outlet~;
#X obj 168 314 outlet~;
#X obj -24 13 r global_stop;
#X msg 143 44 open microphone_s.wav;
#X obj 68 -9 r rpt_audio_2;
#X msg 194 120 \; pd dsp 1 \; to_line_2 0 \, 1 500 \; rpt_audio_2 bang
;
#X obj 184 187 r to_line_2;
#X obj 70 190 r volume_2;
#X obj 215 96 r global_start;
#X connect 0 0 6 0;
#X connect 0 1 5 0;
#X connect 0 2 3 0;
#X connect 1 0 0 0;
#X connect 2 0 0 0;
#X connect 3 0 13 0;
#X connect 4 0 5 1;
#X connect 4 0 6 1;
#X connect 5 0 9 0;
#X connect 6 0 8 0;
#X connect 7 0 1 0;
#X connect 7 1 11 0;
#X connect 10 0 2 0;
#X connect 11 0 0 0;
#X connect 12 0 7 0;
#X connect 14 0 4 0;
#X connect 15 0 6 0;
#X connect 15 0 5 0;
#X connect 16 0 13 0;
#X restore 351 135 pd microphone;
#N canvas 18 23 369 393 music 0;
#X obj 143 72 readsf~ 2;
#X msg 68 37 start;
#X msg -24 35 stop;
#X obj 194 97 bng 15 250 50 0 empty empty empty 17 7 0 10 -262144 -1
-1;
#X obj 184 213 line~;
#X obj 168 247 *~;
#X obj 144 246 *~;
#X obj 68 14 t b b;
#X obj 143 341 outlet~;
#X obj 168 314 outlet~;
#X obj -24 13 r global_stop;
#X obj 68 -9 r rpt_audio_3;
#X msg 143 44 open music_s.wav;
#X msg 194 120 \; pd dsp 1 \; to_line_3 0 \, 1 500 \; rpt_audio_3 bang
;
#X obj 184 187 r to_line_3;
#X obj 70 190 r volume_3;
#X obj 215 96 r global_start;
#X connect 0 0 6 0;
#X connect 0 1 5 0;
#X connect 0 2 3 0;
#X connect 1 0 0 0;
#X connect 2 0 0 0;
#X connect 3 0 13 0;
#X connect 4 0 5 1;
#X connect 4 0 6 1;
#X connect 5 0 9 0;
#X connect 6 0 8 0;
#X connect 7 0 1 0;
#X connect 7 1 12 0;
#X connect 10 0 2 0;
#X connect 11 0 7 0;
#X connect 12 0 0 0;
#X connect 14 0 4 0;
#X connect 15 0 6 0;
#X connect 15 0 5 0;
#X connect 16 0 13 0;
#X restore 351 170 pd music;
#N canvas 74 37 369 393 phone 0;
#X obj 143 72 readsf~ 2;
#X msg 68 37 start;
#X msg -24 35 stop;
#X obj 194 97 bng 15 250 50 0 empty empty empty 17 7 0 10 -262144 -1
-1;
#X obj 184 213 line~;
#X obj 168 247 *~;
#X obj 144 246 *~;
#X obj 68 14 t b b;
#X obj 143 341 outlet~;
#X obj 168 314 outlet~;
#X obj -24 13 r global_stop;
#X obj 68 -9 r rpt_audio_4;
#X msg 143 44 open phone_s.wav;
#X msg 194 120 \; pd dsp 1 \; to_line_4 0 \, 1 500 \; rpt_audio_4 bang
;
#X obj 184 187 r to_line_4;
#X obj 70 190 r volume_4;
#X obj 214 97 r global_start;
#X connect 0 0 6 0;
#X connect 0 1 5 0;
#X connect 0 2 3 0;
#X connect 1 0 0 0;
#X connect 2 0 0 0;
#X connect 3 0 13 0;
#X connect 4 0 5 1;
#X connect 4 0 6 1;
#X connect 5 0 9 0;
#X connect 6 0 8 0;
#X connect 7 0 1 0;
#X connect 7 1 12 0;
#X connect 10 0 2 0;
#X connect 11 0 7 0;
#X connect 12 0 0 0;
#X connect 14 0 4 0;
#X connect 15 0 6 0;
#X connect 15 0 5 0;
#X connect 16 0 13 0;
#X restore 352 203 pd phone;
#N canvas 40 27 369 393 radio 0;
#X obj 143 72 readsf~ 2;
#X msg 68 37 start;
#X msg -24 35 stop;
#X obj 194 97 bng 15 250 50 0 empty empty empty 17 7 0 10 -262144 -1
-1;
#X obj 184 213 line~;
#X obj 168 247 *~;
#X obj 144 246 *~;
#X obj 68 14 t b b;
#X obj 143 341 outlet~;
#X obj 168 314 outlet~;
#X obj -24 13 r global_stop;
#X obj 68 -9 r rpt_audio_5;
#X msg 194 120 \; pd dsp 1 \; to_line_5 0 \, 1 500 \; rpt_audio_5 bang
;
#X obj 184 187 r to_line_5;
#X obj 70 190 r volume_5;
#X msg 143 44 open radio_s.wav;
#X obj 214 95 r global_start;
#X connect 0 0 6 0;
#X connect 0 1 5 0;
#X connect 0 2 3 0;
#X connect 1 0 0 0;
#X connect 2 0 0 0;
#X connect 3 0 12 0;
#X connect 4 0 5 1;
#X connect 4 0 6 1;
#X connect 5 0 9 0;
#X connect 6 0 8 0;
#X connect 7 0 1 0;
#X connect 7 1 15 0;
#X connect 10 0 2 0;
#X connect 11 0 7 0;
#X connect 13 0 4 0;
#X connect 14 0 6 0;
#X connect 14 0 5 0;
#X connect 15 0 0 0;
#X connect 16 0 12 0;
#X restore 353 239 pd radio;
#N canvas 23 23 369 393 tv 0;
#X obj 143 72 readsf~ 2;
#X msg 68 37 start;
#X msg -24 35 stop;
#X obj 194 97 bng 15 250 50 0 empty empty empty 17 7 0 10 -262144 -1
-1;
#X obj 184 213 line~;
#X obj 168 247 *~;
#X obj 144 246 *~;
#X obj 68 14 t b b;
#X obj 143 341 outlet~;
#X obj 168 314 outlet~;
#X obj -24 13 r global_stop;
#X msg 143 44 open tv_s.wav;
#X obj 70 190 r volume_6;
#X obj 184 187 r to_line_6;
#X obj 68 -9 r rpt_audio_6;
#X msg 194 120 \; pd dsp 1 \; to_line_6 0 \, 1 500 \; rpt_audio_6 bang
;
#X obj 216 96 r global_start;
#X connect 0 0 6 0;
#X connect 0 1 5 0;
#X connect 0 2 3 0;
#X connect 1 0 0 0;
#X connect 2 0 0 0;
#X connect 3 0 15 0;
#X connect 4 0 5 1;
#X connect 4 0 6 1;
#X connect 5 0 9 0;
#X connect 6 0 8 0;
#X connect 7 0 1 0;
#X connect 7 1 11 0;
#X connect 10 0 2 0;
#X connect 11 0 0 0;
#X connect 12 0 6 0;
#X connect 12 0 5 0;
#X connect 13 0 4 0;
#X connect 14 0 7 0;
#X connect 16 0 15 0;
#X restore 354 272 pd tv;
#X obj 222 371 line~;
#X obj 424 369 line~;
#X obj 208 395 *~;
#X obj 408 395 *~;
#X obj 222 349 r to_line_out;
#X obj 424 347 r to_line_out;
#X obj 276 450 *~;
#X obj 327 451 *~;
#X obj 271 399 r master_volume;
#X obj 84 233 r input_select;
#X floatatom 84 258 5 0 3 0 - - -;
#X obj 84 282 bng 15 250 50 0 empty empty empty 17 7 0 10 -262144 -1
-1;
#X msg 17 309 \; to_line_out 0 \, 1 500 \;;
#X obj 276 480 outlet~;
#X obj 327 480 outlet~;
#X obj 42 234 inlet;
#X obj 206 307 multiplex~ 1 2 3 4;
#X obj 408 310 multiplex~ 1 2 3 4;
#X text -48 34 Each audio sub_patch sends a stereo signal from it's
bottom two outputs (1+2 or L+R). The signals are then sent to the [multiplex~]
objects which act as a gate \, only passing the signal from the channel
number it receives. The channel numbers are received from the 'Audio_Select'
radio object in the main patch and the [r Input_select]. To avoid clicks
in the audio \, there is a [line~] object that ramps the gain from
0 to 1 over 500ms every time the channel is changed. This signal is
then sent to the next gain which is multipled by 0 to 1 from the [r
master_volume] before being sent to the left and right [outlet~]'s.
;
#X obj -27 234 loadbang 0;
#X connect 2 0 22 0;
#X connect 2 1 23 0;
#X connect 3 0 22 1;
#X connect 3 1 23 1;
#X connect 4 0 22 2;
#X connect 4 1 23 2;
#X connect 5 0 22 3;
#X connect 5 1 23 3;
#X connect 6 0 8 1;
#X connect 7 0 9 1;
#X connect 8 0 12 0;
#X connect 9 0 13 0;
#X connect 10 0 6 0;
#X connect 11 0 7 0;
#X connect 12 0 19 0;
#X connect 13 0 20 0;
#X connect 14 0 12 1;
#X connect 14 0 13 1;
#X connect 15 0 16 0;
#X connect 16 0 17 0;
#X connect 16 0 22 0;
#X connect 16 0 23 0;
#X connect 17 0 18 0;
#X connect 21 0 16 0;
#X connect 22 0 8 0;
#X connect 23 0 9 0;
#X connect 25 0 16 0;
#X restore -59 173 pd Audio Players;
#X text -31 -13 Music;
#X text -31 13 Phone;
#X text -31 38 Radio;
#X text -32 63 TV;
#X obj 146 -8 cnv 15 110 230 empty empty empty 20 12 0 14 -261682 -66577
0;
#N canvas 238 53 695 250 osc_things 0;
#X msg -987 -139 47 \$1 \$2 \$3 0 0 0 0 44 105 0 0 0 0 0 \$4;
#X obj -987 -113 unpackOSC;
#X obj -987 -166 udpreceive 7890;
#X obj -903 -85 routeOSC /vol /src /pst;
#X obj -987 -59 print OSCrcv;
#X obj -813 -35 s preset_select;
#X obj -858 -10 s input_select;
#X obj -903 16 expr ( $f1 - 1 ) / 127;
#X obj -858 -59 change;
#X obj -813 -59 change;
#X obj -519 -163 import mrpeach;
#X obj -903 43 s volume_slider;
#X obj -858 -35 - 1;
#X text -684 -86 udpreceive receives 4 ASCII values from C++ via port
7890 (in this case) OSC values are formatted in groups of four so that
unpackOSC can read and translate from 'ASCII list' to values that Pd
understands. 1 = / 2 = v- 3 = o- 4 = l- 5 = 0 6 = 0 7 = 0 8 = 0 9 =
\, 10 =i 11 =0 12 =0 13 =0 14 =0 15 =0 16 = 1-127 (received value to
use with the adress)- routeOSC reads the unpacked OSC data and routes
the values to an output denpendant on the address (first four values
in the ASCII list). vol = volume src = source pst = presets;
#X connect 0 0 1 0;
#X connect 1 0 4 0;
#X connect 1 0 3 0;
#X connect 2 0 0 0;
#X connect 3 0 7 0;
#X connect 3 1 8 0;
#X connect 3 2 9 0;
#X connect 7 0 11 0;
#X connect 8 0 12 0;
#X connect 9 0 5 0;
#X connect 12 0 6 0;
#X restore 153 2 pd osc_things;
#X obj 159 199 s master_volume;
#X obj 159 64 vsl 85 128 0 1 0 0 empty empty Volume 0 -9 0 10 -204786
-258113 -4160 7400 1;
#X obj 154 27 r volume_slider;
#X connect 5 0 4 0;
#X connect 7 0 6 0;
#X connect 10 0 11 0;
#X connect 16 0 17 0;
#X connect 17 0 15 0;
#X connect 17 1 15 1;
#X connect 25 0 24 0;
#X connect 26 0 25 0;
