#N canvas -7 23 650 572 10;
#X declare -lib mrpeach;
#X obj 130 -255 cnv 15 375 130 empty empty empty 20 12 0 14 -204786
-66577 0;
#X obj -93 -255 cnv 15 175 175 empty empty empty 20 12 0 14 -261234
-66577 0;
#X obj -78 -106 s global_stop;
#X obj -78 -128 bng 15 250 50 0 empty empty empty 17 7 0 10 -258113
-1 -1;
#X msg -81 -221 \; pd dsp \$1;
#X obj -81 -246 tgl 15 0 empty empty empty 17 7 0 10 -204786 -1 -1
1 1;
#X text -54 -248 Turn DSP On/Off;
#X text -56 -128 Stop all audio files;
#X obj -81 -176 bng 15 250 50 0 empty empty empty 17 7 0 10 -4034 -1
-1;
#X obj -81 -154 s global_start;
#X text -59 -176 Start all audio files;
#X obj -68 -35 cnv 15 115 310 empty empty empty 20 12 0 14 -204800
-66577 0;
#X text -45 149 Audio Players;
#X obj -30 249 dac~;
#N canvas 449 23 1114 668 Audio 0;
#X obj 4 -218 cnv 15 370 160 empty empty empty 20 12 0 14 -257985 -66577
0;
#X text 12 -212 Each audio sub_patch sends a stereo signal from it's
bottom two outputs (1+2 or L+R). The signals are then sent to the [multiplex~]
objects which act as a gate \, only passing the signal from the channel
number it receives. The channel numbers are received from the 'Audio_Select'
radio object in the main patch and the [r Input_select]. To avoid clicks
in the audio \, there is a [line~] object that ramps the gain from
0 to 1 over 500ms every time the channel is changed. This signal is
then sent to the next gain which is multipled by 0 to 1 from the [r
master_volume] before being sent to the left and right [outlet~]'s.
;
#X obj 4 -51 cnv 15 370 410 empty empty empty 20 12 0 14 -261234 -66577
0;
#N canvas 150 188 369 393 audio_in_out 0;
#X obj 143 72 readsf~ 2;
#X msg 143 44 open audio_in_out_s.wav;
#X msg 68 37 start;
#X msg -24 35 stop;
#X obj 194 97 bng 15 250 50 0 empty empty empty 17 7 0 10 -262144 -1
-1;
#X obj 184 213 line~;
#X obj 168 247 *~;
#X obj 144 246 *~;
#X obj 184 187 r to_line_1;
#X msg 194 120 \; pd dsp 1 \; to_line_1 0 \, 1 500 \; rpt_audio_1 bang
;
#X obj 68 -9 r rpt_audio_1;
#X obj 68 14 t b b;
#X obj 143 341 outlet~;
#X obj 168 314 outlet~;
#X obj -24 13 r global_stop;
#X obj 70 190 r volume_1;
#X obj 216 95 r global_start;
#X connect 0 0 7 0;
#X connect 0 1 6 0;
#X connect 0 2 4 0;
#X connect 1 0 0 0;
#X connect 2 0 0 0;
#X connect 3 0 0 0;
#X connect 4 0 9 0;
#X connect 5 0 6 1;
#X connect 5 0 7 1;
#X connect 6 0 13 0;
#X connect 7 0 12 0;
#X connect 8 0 5 0;
#X connect 10 0 11 0;
#X connect 11 0 2 0;
#X connect 11 1 1 0;
#X connect 14 0 3 0;
#X connect 15 0 7 0;
#X connect 15 0 6 0;
#X connect 16 0 9 0;
#X restore 168 -45 pd audio_in_out;
#N canvas 602 299 369 393 microphone 0;
#X obj 143 72 readsf~ 2;
#X msg 68 37 start;
#X msg -24 35 stop;
#X obj 194 97 bng 15 250 50 0 empty empty empty 17 7 0 10 -262144 -1
-1;
#X obj 184 213 line~;
#X obj 168 247 *~;
#X obj 144 246 *~;
#X obj 68 14 t b b;
#X obj 143 341 outlet~;
#X obj 168 314 outlet~;
#X obj -24 13 r global_stop;
#X obj 68 -9 r rpt_audio_2;
#X msg 194 120 \; pd dsp 1 \; to_line_2 0 \, 1 500 \; rpt_audio_2 bang
;
#X obj 184 187 r to_line_2;
#X obj 80 197 r volume_2;
#X obj 215 96 r global_start;
#X obj -19 197 catch~ feedback;
#X msg 143 44 open microphone_new.wav;
#X connect 0 0 6 0;
#X connect 0 1 5 0;
#X connect 0 2 3 0;
#X connect 1 0 0 0;
#X connect 2 0 0 0;
#X connect 3 0 12 0;
#X connect 4 0 5 1;
#X connect 4 0 6 1;
#X connect 5 0 9 0;
#X connect 6 0 8 0;
#X connect 7 0 1 0;
#X connect 7 1 17 0;
#X connect 10 0 2 0;
#X connect 11 0 7 0;
#X connect 13 0 4 0;
#X connect 14 0 6 0;
#X connect 14 0 5 0;
#X connect 15 0 12 0;
#X connect 16 0 5 0;
#X connect 16 0 6 0;
#X connect 17 0 0 0;
#X restore 169 -12 pd microphone;
#N canvas 18 23 369 393 music 0;
#X obj 143 72 readsf~ 2;
#X msg 68 37 start;
#X msg -24 35 stop;
#X obj 194 97 bng 15 250 50 0 empty empty empty 17 7 0 10 -262144 -1
-1;
#X obj 184 213 line~;
#X obj 168 247 *~;
#X obj 144 246 *~;
#X obj 68 14 t b b;
#X obj 143 341 outlet~;
#X obj 168 314 outlet~;
#X obj -24 13 r global_stop;
#X obj 68 -9 r rpt_audio_3;
#X msg 143 44 open music_s.wav;
#X msg 194 120 \; pd dsp 1 \; to_line_3 0 \, 1 500 \; rpt_audio_3 bang
;
#X obj 184 187 r to_line_3;
#X obj 70 190 r volume_3;
#X obj 215 96 r global_start;
#X connect 0 0 6 0;
#X connect 0 1 5 0;
#X connect 0 2 3 0;
#X connect 1 0 0 0;
#X connect 2 0 0 0;
#X connect 3 0 13 0;
#X connect 4 0 5 1;
#X connect 4 0 6 1;
#X connect 5 0 9 0;
#X connect 6 0 8 0;
#X connect 7 0 1 0;
#X connect 7 1 12 0;
#X connect 10 0 2 0;
#X connect 11 0 7 0;
#X connect 12 0 0 0;
#X connect 14 0 4 0;
#X connect 15 0 6 0;
#X connect 15 0 5 0;
#X connect 16 0 13 0;
#X restore 169 23 pd music;
#N canvas 74 37 369 393 phone 0;
#X obj 143 72 readsf~ 2;
#X msg 68 37 start;
#X msg -24 35 stop;
#X obj 194 97 bng 15 250 50 0 empty empty empty 17 7 0 10 -262144 -1
-1;
#X obj 184 213 line~;
#X obj 168 247 *~;
#X obj 143 247 *~;
#X obj 68 14 t b b;
#X obj 143 335 outlet~;
#X obj 168 314 outlet~;
#X obj -24 13 r global_stop;
#X obj 68 -9 r rpt_audio_4;
#X msg 143 44 open phone_s.wav;
#X msg 194 120 \; pd dsp 1 \; to_line_4 0 \, 1 500 \; rpt_audio_4 bang
;
#X obj 184 187 r to_line_4;
#X obj 70 190 r volume_4;
#X obj 214 97 r global_start;
#X obj -17 189 catch~ noise;
#X connect 0 0 6 0;
#X connect 0 1 5 0;
#X connect 0 2 3 0;
#X connect 1 0 0 0;
#X connect 2 0 0 0;
#X connect 3 0 13 0;
#X connect 4 0 5 1;
#X connect 4 0 6 1;
#X connect 5 0 9 0;
#X connect 6 0 8 0;
#X connect 7 0 1 0;
#X connect 7 1 12 0;
#X connect 10 0 2 0;
#X connect 11 0 7 0;
#X connect 12 0 0 0;
#X connect 14 0 4 0;
#X connect 15 0 6 0;
#X connect 15 0 5 0;
#X connect 16 0 13 0;
#X connect 17 0 6 0;
#X connect 17 0 5 0;
#X restore 170 56 pd phone;
#N canvas 19 23 369 393 radio 0;
#X obj 143 72 readsf~ 2;
#X msg 68 37 start;
#X msg -24 35 stop;
#X obj 194 97 bng 15 250 50 0 empty empty empty 17 7 0 10 -262144 -1
-1;
#X obj 184 213 line~;
#X obj 168 247 *~;
#X obj 144 246 *~;
#X obj 68 14 t b b;
#X obj 143 299 outlet~;
#X obj 206 304 outlet~;
#X obj -24 13 r global_stop;
#X obj 68 -9 r rpt_audio_5;
#X msg 194 120 \; pd dsp 1 \; to_line_5 0 \, 1 500 \; rpt_audio_5 bang
;
#X obj 184 187 r to_line_5;
#X obj 70 190 r volume_5;
#X msg 143 44 open radio_s.wav;
#X obj 214 95 r global_start;
#X obj 143 272 hip~ 500;
#X obj 205 272 hip~ 500;
#X obj 212 245 r freqbass;
#X connect 0 0 6 0;
#X connect 0 1 5 0;
#X connect 0 2 3 0;
#X connect 1 0 0 0;
#X connect 2 0 0 0;
#X connect 3 0 12 0;
#X connect 4 0 5 1;
#X connect 4 0 6 1;
#X connect 5 0 18 0;
#X connect 6 0 17 0;
#X connect 7 0 1 0;
#X connect 7 1 15 0;
#X connect 10 0 2 0;
#X connect 11 0 7 0;
#X connect 13 0 4 0;
#X connect 14 0 6 0;
#X connect 14 0 5 0;
#X connect 15 0 0 0;
#X connect 16 0 12 0;
#X connect 17 0 8 0;
#X connect 18 0 9 0;
#X connect 19 0 18 1;
#X connect 19 0 17 1;
#X restore 171 92 pd radio;
#N canvas 23 23 369 393 tv 0;
#X obj -146 -64 readsf~ 2;
#X msg -221 -99 start;
#X msg -313 -101 stop;
#X obj -95 -39 bng 15 250 50 0 empty empty empty 17 7 0 10 -262144
-1 -1;
#X obj -105 77 line~;
#X obj -121 111 *~;
#X obj -145 110 *~;
#X obj -221 -122 t b b;
#X obj -146 205 outlet~;
#X obj -121 178 outlet~;
#X obj -313 -123 r global_stop;
#X obj -219 54 r volume_6;
#X obj -105 51 r to_line_6;
#X obj -221 -145 r rpt_audio_6;
#X msg -95 -16 \; pd dsp 1 \; to_line_6 0 \, 1 500 \; rpt_audio_6 bang
;
#X obj -73 -40 r global_start;
#X obj -123 145 lop~;
#X obj -154 169 lop~;
#X obj -43 121 r freqtreb;
#X msg -146 -92 open tv_new.wav;
#X connect 0 0 6 0;
#X connect 0 1 5 0;
#X connect 0 2 3 0;
#X connect 1 0 0 0;
#X connect 2 0 0 0;
#X connect 3 0 14 0;
#X connect 4 0 5 1;
#X connect 4 0 6 1;
#X connect 5 0 16 0;
#X connect 6 0 17 0;
#X connect 7 0 1 0;
#X connect 7 1 19 0;
#X connect 10 0 2 0;
#X connect 11 0 6 0;
#X connect 11 0 5 0;
#X connect 12 0 4 0;
#X connect 13 0 7 0;
#X connect 15 0 14 0;
#X connect 16 0 9 0;
#X connect 17 0 8 0;
#X connect 18 0 16 1;
#X connect 18 0 17 1;
#X connect 19 0 0 0;
#X restore 172 125 pd tv;
#X obj 40 224 line~;
#X obj 242 222 line~;
#X obj 26 248 *~;
#X obj 226 248 *~;
#X obj 40 202 r to_line_out;
#X obj 242 200 r to_line_out;
#X obj 94 303 *~;
#X obj 145 304 *~;
#X obj 109 252 r master_volume;
#X obj 94 333 outlet~;
#X obj 145 333 outlet~;
#X obj 24 160 multiplex~ 1 2 3 4 5 6;
#X obj 226 163 multiplex~ 1 2 3 4 5 6;
#X obj 24 48 r inputnum;
#X obj 271 42 r inputnum;
#X obj 394 -50 cnv 15 400 190 empty empty empty 20 12 0 14 -204786
-66577 0;
#X obj 398 183 cnv 15 250 160 empty empty empty 20 12 0 14 -203904
-66577 0;
#X floatatom 482 -17 5 0 5 0 - - -;
#X obj 469 7 bng 15 250 50 0 empty empty empty 17 7 0 10 -262144 -1
-1;
#X obj 583 -41 inlet;
#X obj 407 -41 loadbang 0;
#N canvas 650 375 450 300 bass_boost 1;
#X obj -168 -35 inlet;
#X obj -168 13 bng 15 250 50 0 empty empty empty 17 7 0 10 -262144
-1 -1;
#X obj -168 -12 route 2;
#X msg -138 31 0;
#X obj -102 68 s freqbass;
#X obj -106 -12 r inputnum;
#X msg -106 30 2000;
#X connect 0 0 2 0;
#X connect 2 0 1 0;
#X connect 2 0 3 0;
#X connect 3 0 4 0;
#X connect 5 0 6 0;
#X connect 6 0 4 0;
#X restore 486 109 pd bass_boost;
#N canvas 789 423 450 300 treble_boost 0;
#X obj -486 -223 inlet;
#X obj -486 -175 bng 15 250 50 0 empty empty empty 17 7 0 10 -262144
-1 -1;
#X obj -424 -200 r inputnum;
#X obj -420 -120 s freqtreb;
#X msg -456 -157 44100;
#X msg -417 -154 300;
#X obj -486 -200 route 3;
#X connect 0 0 6 0;
#X connect 2 0 5 0;
#X connect 4 0 3 0;
#X connect 5 0 3 0;
#X connect 6 0 1 0;
#X connect 6 0 4 0;
#X restore 502 51 pd treble_boost;
#X obj 482 -42 r preset_select;
#N canvas 609 343 450 300 noise_reduce 0;
#X obj -169 -1 inlet;
#X obj -164 54 bng 15 250 50 0 empty empty empty 17 7 0 10 -262144
-1 -1;
#X obj -169 78 cnv 15 100 60 empty empty empty 20 12 0 14 -258113 -66577
0;
#X obj -141 112 noise~;
#X text -142 84 Noise;
#X obj -166 25 route 0;
#X obj -141 150 *~ 0.5;
#X obj -142 180 throw~ noise;
#X msg -78 113 0;
#X msg -47 117 0.05;
#X obj -50 65 r inputnum;
#X connect 0 0 5 0;
#X connect 3 0 6 0;
#X connect 5 0 1 0;
#X connect 5 0 8 0;
#X connect 6 0 7 0;
#X connect 8 0 6 1;
#X connect 9 0 6 1;
#X connect 10 0 9 0;
#X restore 493 79 pd noise_reduce;
#N canvas 176 198 538 458 feedback_killer 0;
#X obj 3 -19 inlet;
#X obj 102 -4 cnv 15 270 360 empty empty empty 20 12 0 14 -260097 -66577
0;
#X obj 114 334 *~ 0.5;
#X obj 202 334 *~ 0.5;
#X obj 114 307 cycle~ 990;
#X obj 202 306 cycle~ 1020;
#X floatatom 164 136 5 0 0 0 - - -;
#X floatatom 203 137 5 0 0 0 - - -;
#X obj 202 160 / 2;
#X msg 114 237 \$1 500;
#X obj 114 262 line~;
#X obj 114 214 -;
#X msg 202 238 \$1 500;
#X obj 202 263 line~;
#X obj 202 215 +;
#X obj 202 185 t b f;
#X obj 114 188 t b f;
#X obj 203 82 metro 1000;
#X obj 203 59 tgl 15 0 empty empty empty 17 7 0 10 -262144 -1 -1 1
1;
#X obj 203 29 loadbang;
#X msg 164 84 6000;
#X msg 280 81 2;
#X obj 203 112 counter;
#X msg 311 81 0;
#X msg 341 81 23;
#X text 112 2 Feedback Simulator;
#X msg 3 303 0;
#X obj 114 367 throw~ feedback;
#X obj 282 304 r set_off;
#X obj 27 256 r inputnum;
#X obj 29 278 bng 15 250 50 0 empty empty empty 17 7 0 10 -262144 -1
-1;
#X obj 5 5 route 1;
#X msg 31 300 0.01;
#X connect 0 0 31 0;
#X connect 2 0 27 0;
#X connect 3 0 27 0;
#X connect 4 0 2 0;
#X connect 5 0 3 0;
#X connect 6 0 14 0;
#X connect 6 0 11 0;
#X connect 7 0 8 0;
#X connect 8 0 15 0;
#X connect 8 0 16 0;
#X connect 9 0 10 0;
#X connect 10 0 4 0;
#X connect 11 0 9 0;
#X connect 12 0 13 0;
#X connect 13 0 5 0;
#X connect 14 0 12 0;
#X connect 15 0 14 0;
#X connect 15 1 14 1;
#X connect 16 0 11 0;
#X connect 16 1 11 1;
#X connect 17 0 22 0;
#X connect 18 0 17 0;
#X connect 19 0 18 0;
#X connect 19 0 20 0;
#X connect 19 0 21 0;
#X connect 19 0 23 0;
#X connect 19 0 24 0;
#X connect 20 0 6 0;
#X connect 21 0 22 1;
#X connect 22 0 7 0;
#X connect 23 0 22 2;
#X connect 24 0 22 4;
#X connect 26 0 2 1;
#X connect 26 0 3 1;
#X connect 28 0 2 1;
#X connect 28 0 3 1;
#X connect 29 0 30 0;
#X connect 30 0 32 0;
#X connect 31 0 26 0;
#X connect 32 0 2 1;
#X connect 32 0 3 1;
#X restore 503 22 pd feedback_killer;
#X text 624 21 Works with Microphone;
#X text 594 79 Works with Phone;
#X text 575 108 Works with Radio;
#X text 602 51 Works with TV;
#X obj 531 202 r input_select;
#X floatatom 486 249 5 0 5 0 - - -;
#X obj 419 279 bng 15 250 50 0 empty empty empty 17 7 0 10 -262144
-1 -1;
#X msg 419 300 \; to_line_out 0 \, 1 500 \;;
#X obj 403 201 inlet;
#X obj 462 203 loadbang 0;
#X obj 486 274 s inputnum;
#X obj 391 -218 cnv 15 400 160 empty empty empty 20 12 0 14 -4032 -66577
0;
#X text 402 -212 'Preset Select' receives nubers 0 to 3 When a preset
receives it's number \, the corresponding effect is turned to 0 (by
sending a bang);
#X connect 3 0 20 0;
#X connect 3 1 21 0;
#X connect 4 0 20 1;
#X connect 4 1 21 1;
#X connect 5 0 20 2;
#X connect 5 1 21 2;
#X connect 6 0 20 3;
#X connect 6 1 21 3;
#X connect 7 0 20 4;
#X connect 7 1 21 4;
#X connect 8 0 20 5;
#X connect 8 1 21 5;
#X connect 9 0 11 1;
#X connect 10 0 12 1;
#X connect 11 0 15 0;
#X connect 12 0 16 0;
#X connect 13 0 9 0;
#X connect 14 0 10 0;
#X connect 15 0 18 0;
#X connect 16 0 19 0;
#X connect 17 0 15 1;
#X connect 17 0 16 1;
#X connect 20 0 11 0;
#X connect 21 0 12 0;
#X connect 22 0 20 0;
#X connect 23 0 21 0;
#X connect 26 0 27 0;
#X connect 26 0 30 0;
#X connect 26 0 33 0;
#X connect 26 0 34 0;
#X connect 26 0 31 0;
#X connect 28 0 26 0;
#X connect 29 0 26 0;
#X connect 32 0 26 0;
#X connect 39 0 40 0;
#X connect 40 0 41 0;
#X connect 40 0 45 0;
#X connect 41 0 42 0;
#X connect 43 0 40 0;
#X connect 44 0 40 0;
#X restore -59 170 pd Audio Players;
#X obj 263 -49 cnv 15 110 260 empty empty empty 20 12 0 14 -261682
-66577 0;
#N canvas 637 23 676 259 osc_things 0;
#X msg -987 -139 47 \$1 \$2 \$3 0 0 0 0 44 105 0 0 0 0 0 \$4;
#X obj -987 -113 unpackOSC;
#X obj -987 -166 udpreceive 7890;
#X obj -903 -85 routeOSC /vol /src /pst;
#X obj -987 -59 print OSCrcv;
#X obj -813 -35 s preset_select;
#X obj -903 24 expr ( $f1 - 1 ) / 127;
#X obj -858 -59 change;
#X obj -813 -59 change;
#X obj -519 -163 import mrpeach;
#X obj -903 51 s volume_slider;
#X obj -858 -35 - 1;
#X text -684 -86 udpreceive receives 4 ASCII values from C++ via port
7890 (in this case) OSC values are formatted in groups of four so that
unpackOSC can read and translate from 'ASCII list' to values that Pd
understands. 1 = / 2 = v- 3 = o- 4 = l- 5 = 0 6 = 0 7 = 0 8 = 0 9 =
\, 10 =i 11 =0 12 =0 13 =0 14 =0 15 =0 16 = 1-127 (received value to
use with the adress)- routeOSC reads the unpacked OSC data and routes
the values to an output denpendant on the address (first four values
in the ASCII list). vol = volume src = source pst = presets;
#N canvas 565 30 547 424 rotation 0;
#X obj -613 333 print;
#X obj -573 306 spigot;
#X floatatom -540 44 5 1 200 0 - - -;
#X floatatom -525 178 5 0 0 0 - - -;
#X msg -518 108 set;
#X obj -518 131 list append;
#X obj -518 153 list trim;
#X obj -540 202 -;
#X obj -540 221 abs;
#X floatatom -503 221 5 0 0 0 - - -;
#X msg -540 275 0;
#X msg -507 274 1;
#X obj -525 81 delay 20;
#X obj -540 243 moses 0.015;
#X text -501 -47 test slider;
#X text -463 241 minimum change required to pass value here is 1.5%
;
#X text -529 305 Output is thresholded rotation value;
#X text -463 79 time between comparison values for rotation;
#X obj -573 -29 inlet;
#X obj -573 333 s input_select;
#X obj -573 -3 expr $f1 / 127 * 6;
#X obj -531 -28 hsl 128 15 0 127 0 0 empty empty empty -2 -8 0 10 -261234
-33289 -1 800 1;
#X text -480 332 Sends the selected input to the Audio sub-patch.;
#X text -456 -3 Divides the input amount by 127 and multiplies it by
the number of Audio Sources to be selected.;
#X connect 1 0 0 0;
#X connect 1 0 19 0;
#X connect 2 0 5 1;
#X connect 2 0 7 0;
#X connect 2 0 12 0;
#X connect 3 0 7 1;
#X connect 4 0 5 0;
#X connect 5 0 6 0;
#X connect 6 0 3 0;
#X connect 7 0 8 0;
#X connect 8 0 9 0;
#X connect 8 0 13 0;
#X connect 10 0 1 1;
#X connect 11 0 1 1;
#X connect 12 0 4 0;
#X connect 12 0 3 0;
#X connect 13 0 10 0;
#X connect 13 1 11 0;
#X connect 18 0 20 0;
#X connect 20 0 1 0;
#X connect 20 0 2 0;
#X connect 21 0 20 0;
#X restore -858 -5 pd rotation threshold;
#X connect 0 0 1 0;
#X connect 1 0 4 0;
#X connect 1 0 3 0;
#X connect 2 0 0 0;
#X connect 3 0 6 0;
#X connect 3 1 7 0;
#X connect 3 2 8 0;
#X connect 6 0 10 0;
#X connect 7 0 11 0;
#X connect 8 0 5 0;
#X connect 11 0 13 0;
#X restore 269 -12 pd osc_things;
#X obj 275 185 s master_volume;
#X obj 275 50 vsl 85 128 0 1 0 0 empty empty Volume 0 -9 0 10 -204786
-258113 -4160 8500 1;
#X obj 270 13 r volume_slider;
#X obj -59 -11 vradio 25 1 0 6 empty input_select Audio_Select 0 -8
0 10 -262144 -1 -1 0;
#X text -31 -10 Aux;
#X text -31 16 Microphone;
#X text -31 41 Music;
#X text -32 66 Phone;
#X text -32 91 Radio;
#X text -30 116 TV;
#X text 138 -251 This patch plays the audio from (at present) 6 different
inputs simultaneously. To select which audio to hear \, choose a source
from the radio object (a number from 0-5). Each input/audio player
will loop it's audio file until it receives the global stop command.
Each audio player has it's own volume receive which takes input 0 as
minimum volume and 1 as max (if we decide to give each source this
function?). There is also a master volume which takes the same min/max
values.;
#X obj 56 -33 cnv 15 130 150 empty empty empty 20 12 0 14 -257985 -66577
0;
#X obj 61 -10 vradio 25 1 0 4 empty preset_select Preset_Select 0 -8
0 10 -204786 -258113 -1 2;
#X text 89 -9 Noise Reduction;
#X text 89 42 Bass Boost;
#X text 88 67 Treble Boost;
#X text 89 17 Feedback Killer;
#N canvas 677 23 591 497 phone_osc 0;
#X obj 15 -1060 unpackOSC;
#X obj 15 -994 select 1;
#X obj 74 -996 s vm;
#X obj 116 -948 s p1;
#X obj 139 -923 s p2;
#X obj 162 -901 s p3;
#X obj 185 -881 s p4;
#X obj 116 -976 select 1 2 3;
#X obj 252 -970 int;
#X msg 252 -947 set \$1;
#X msg 252 -918 5;
#X obj 15 -1019 routeOSC /volume /vmute /preset /setsource /source
;
#X obj 193 -933 bng 15 250 50 0 empty empty empty 17 7 0 10 -262144
-1 -1;
#X obj 15 -1096 udpreceive 9000;
#X obj 252 -894 s input_select;
#N canvas 823 285 379 357 step_volume 0;
#X msg 61 -805 set \$1;
#X msg 145 -779 0.669291;
#X msg -12 -778 0.669291;
#X obj 65 -842 clip 0 1;
#X obj 46 -891 r master_volume;
#X obj 65 -863 r step_volume;
#X msg 58 -670 \; volume_slider \$1 \; step_volume \$1;
#X obj -12 -816 inlet;
#X obj 145 -814 inlet;
#X obj -12 -756 + 0.25;
#X obj 146 -758 - 0.25;
#X obj 207 -814 inlet;
#X text -16 -837 Increase;
#X text 143 -835 Decrease;
#X text 210 -834 Mute;
#X obj 58 -691 *;
#X obj 220 -742 t b f;
#X obj -5 -866 bng 15 250 50 0 empty empty empty 17 7 0 10 -262144
-1 -1;
#X floatatom 58 -724 5 0 0 0 - - -;
#X obj 207 -790 select 0;
#X msg 207 -765 1;
#X msg 252 -765 0;
#X text -4 -611 This subpatch receive a bang from the + and - button
of the phone and increment the volume in the main patch. It also receive
values of the current main volume.;
#X connect 0 0 1 0;
#X connect 0 0 2 0;
#X connect 1 0 10 0;
#X connect 2 0 9 0;
#X connect 3 0 0 0;
#X connect 4 0 0 0;
#X connect 5 0 3 0;
#X connect 7 0 2 0;
#X connect 8 0 1 0;
#X connect 9 0 18 0;
#X connect 10 0 18 0;
#X connect 11 0 19 0;
#X connect 15 0 6 0;
#X connect 16 0 15 0;
#X connect 16 1 15 1;
#X connect 17 0 2 0;
#X connect 18 0 15 0;
#X connect 19 0 20 0;
#X connect 19 1 21 0;
#X connect 20 0 16 0;
#X connect 21 0 16 0;
#X restore 15 -968 pd step_volume;
#X obj 362 -896 cnv 15 140 200 empty empty Phone_screen 20 0 0 14 -203904
-66577 0;
#X obj 458 -814 bng 20 250 50 0 empty volume_up + 7 10 2 12 -228856
-128992 -1;
#X obj 458 -783 bng 20 250 50 0 empty volume_down _ 7 5 2 12 -228856
-128992 -1;
#X obj 483 -796 tgl 15 0 empty vm M 4 7 2 10 -228856 -86277 -1 0 1
;
#X obj 389 -879 bng 20 250 50 0 empty p1 P1 4 11 2 12 -228856 -128992
-1;
#X obj 415 -879 bng 20 250 50 0 empty p2 P2 4 11 2 12 -228856 -128992
-1;
#X obj 441 -880 bng 20 250 50 0 empty p3 P3 4 11 2 12 -228856 -128992
-1;
#X obj 467 -880 bng 20 250 50 0 empty p4 P4 4 11 2 12 -228856 -128992
-1;
#X obj 430 -848 vradio 20 1 0 6 empty input_select empty 0 -8 0 10
-228856 -1 -1 0;
#X text 408 -748 TV;
#X text 364 -829 Microphone;
#X text 391 -809 Music;
#X text 404 -850 Aux;
#X text 367 -789 Telephone;
#X text 392 -768 Radio;
#X obj 430 -723 bng 20 250 50 0 empty input_select S 8 10 0 10 -262144
-1 -1;
#X obj 252 -994 expr ($f1 + 0.1)* 6;
#X text 245 -638 The index of the sources in the phone app is incorrect
;
#X text 297 -977 need to check if source sel from the phone is precise
;
#X obj -4 -851 cnv 15 350 70 empty empty empty 20 12 0 14 -204786 -66577
0;
#X text -6 -858 comment;
#X text 1 -842 This subpatch receives values from the TouchOSC app
installed on Tom's phone simulating the ConnectLine from Oticon. Then
\, it shows the value received and it routes them to the main patch.
;
#X connect 0 0 11 0;
#X connect 1 0 15 0;
#X connect 1 1 15 1;
#X connect 7 0 3 0;
#X connect 7 1 4 0;
#X connect 7 2 5 0;
#X connect 7 3 6 0;
#X connect 8 0 9 0;
#X connect 9 0 10 0;
#X connect 10 0 14 0;
#X connect 11 0 1 0;
#X connect 11 1 2 0;
#X connect 11 2 7 0;
#X connect 11 3 12 0;
#X connect 11 4 32 0;
#X connect 12 0 10 0;
#X connect 13 0 0 0;
#X connect 32 0 8 0;
#X restore 269 -38 pd phone_osc;
#X text 125 -263;
#X connect 3 0 2 0;
#X connect 5 0 4 0;
#X connect 8 0 9 0;
#X connect 14 0 13 0;
#X connect 14 1 13 1;
#X connect 18 0 17 0;
#X connect 19 0 18 0;
#X connect 20 0 14 0;
#X connect 29 0 14 1;
