#N canvas 418 82 948 686 10;
#N canvas 10 23 369 393 audio_in_out 0;
#X obj 143 72 readsf~ 2;
#X msg 143 44 open audio_in_out_s.wav;
#X msg 68 37 start;
#X msg -24 35 stop;
#X obj 194 97 bng 15 250 50 0 empty empty empty 17 7 0 10 -262144 -1
-1;
#X obj 184 213 line~;
#X obj 168 247 *~;
#X obj 144 246 *~;
#X obj 184 187 r to_line_1;
#X msg 194 120 \; pd dsp 1 \; to_line_1 0 \, 1 500 \; rpt_audio_1 bang
;
#X obj 68 -9 r rpt_audio_1;
#X obj 68 14 t b b;
#X obj 143 341 outlet~;
#X obj 168 314 outlet~;
#X obj -24 13 r global_stop;
#X obj 70 190 r volume_1;
#X obj 216 95 r global_start;
#X connect 0 0 7 0;
#X connect 0 1 6 0;
#X connect 0 2 4 0;
#X connect 1 0 0 0;
#X connect 2 0 0 0;
#X connect 3 0 0 0;
#X connect 4 0 9 0;
#X connect 5 0 6 1;
#X connect 5 0 7 1;
#X connect 6 0 13 0;
#X connect 7 0 12 0;
#X connect 8 0 5 0;
#X connect 10 0 11 0;
#X connect 11 0 2 0;
#X connect 11 1 1 0;
#X connect 14 0 3 0;
#X connect 15 0 7 0;
#X connect 15 0 6 0;
#X connect 16 0 9 0;
#X restore 203 61 pd audio_in_out;
#X obj -57 51 s global_stop;
#X obj -57 29 bng 15 250 50 0 empty empty empty 17 7 0 10 -262144 -1
-1;
#N canvas 0 23 369 393 microphone 0;
#X obj 143 72 readsf~ 2;
#X msg 68 37 start;
#X msg -24 35 stop;
#X obj 194 97 bng 15 250 50 0 empty empty empty 17 7 0 10 -262144 -1
-1;
#X obj 184 213 line~;
#X obj 168 247 *~;
#X obj 144 246 *~;
#X obj 68 14 t b b;
#X obj 143 341 outlet~;
#X obj 168 314 outlet~;
#X obj -24 13 r global_stop;
#X msg 143 44 open microphone_s.wav;
#X obj 68 -9 r rpt_audio_2;
#X msg 194 120 \; pd dsp 1 \; to_line_2 0 \, 1 500 \; rpt_audio_2 bang
;
#X obj 184 187 r to_line_2;
#X obj 70 190 r volume_2;
#X obj 215 96 r global_start;
#X connect 0 0 6 0;
#X connect 0 1 5 0;
#X connect 0 2 3 0;
#X connect 1 0 0 0;
#X connect 2 0 0 0;
#X connect 3 0 13 0;
#X connect 4 0 5 1;
#X connect 4 0 6 1;
#X connect 5 0 9 0;
#X connect 6 0 8 0;
#X connect 7 0 1 0;
#X connect 7 1 11 0;
#X connect 10 0 2 0;
#X connect 11 0 0 0;
#X connect 12 0 7 0;
#X connect 14 0 4 0;
#X connect 15 0 6 0;
#X connect 15 0 5 0;
#X connect 16 0 13 0;
#X restore 204 94 pd microphone;
#N canvas 18 23 369 393 music 0;
#X obj 143 72 readsf~ 2;
#X msg 68 37 start;
#X msg -24 35 stop;
#X obj 194 97 bng 15 250 50 0 empty empty empty 17 7 0 10 -262144 -1
-1;
#X obj 184 213 line~;
#X obj 168 247 *~;
#X obj 144 246 *~;
#X obj 68 14 t b b;
#X obj 143 341 outlet~;
#X obj 168 314 outlet~;
#X obj -24 13 r global_stop;
#X obj 68 -9 r rpt_audio_3;
#X msg 143 44 open music_s.wav;
#X msg 194 120 \; pd dsp 1 \; to_line_3 0 \, 1 500 \; rpt_audio_3 bang
;
#X obj 184 187 r to_line_3;
#X obj 70 190 r volume_3;
#X obj 215 96 r global_start;
#X connect 0 0 6 0;
#X connect 0 1 5 0;
#X connect 0 2 3 0;
#X connect 1 0 0 0;
#X connect 2 0 0 0;
#X connect 3 0 13 0;
#X connect 4 0 5 1;
#X connect 4 0 6 1;
#X connect 5 0 9 0;
#X connect 6 0 8 0;
#X connect 7 0 1 0;
#X connect 7 1 12 0;
#X connect 10 0 2 0;
#X connect 11 0 7 0;
#X connect 12 0 0 0;
#X connect 14 0 4 0;
#X connect 15 0 6 0;
#X connect 15 0 5 0;
#X connect 16 0 13 0;
#X restore 204 129 pd music;
#N canvas 74 37 369 393 phone 0;
#X obj 143 72 readsf~ 2;
#X msg 68 37 start;
#X msg -24 35 stop;
#X obj 194 97 bng 15 250 50 0 empty empty empty 17 7 0 10 -262144 -1
-1;
#X obj 184 213 line~;
#X obj 168 247 *~;
#X obj 144 246 *~;
#X obj 68 14 t b b;
#X obj 143 341 outlet~;
#X obj 168 314 outlet~;
#X obj -24 13 r global_stop;
#X obj 68 -9 r rpt_audio_4;
#X msg 143 44 open phone_s.wav;
#X msg 194 120 \; pd dsp 1 \; to_line_4 0 \, 1 500 \; rpt_audio_4 bang
;
#X obj 184 187 r to_line_4;
#X obj 70 190 r volume_4;
#X obj 214 97 r global_start;
#X connect 0 0 6 0;
#X connect 0 1 5 0;
#X connect 0 2 3 0;
#X connect 1 0 0 0;
#X connect 2 0 0 0;
#X connect 3 0 13 0;
#X connect 4 0 5 1;
#X connect 4 0 6 1;
#X connect 5 0 9 0;
#X connect 6 0 8 0;
#X connect 7 0 1 0;
#X connect 7 1 12 0;
#X connect 10 0 2 0;
#X connect 11 0 7 0;
#X connect 12 0 0 0;
#X connect 14 0 4 0;
#X connect 15 0 6 0;
#X connect 15 0 5 0;
#X connect 16 0 13 0;
#X restore 205 162 pd phone;
#N canvas 40 27 369 393 radio 0;
#X obj 143 72 readsf~ 2;
#X msg 68 37 start;
#X msg -24 35 stop;
#X obj 194 97 bng 15 250 50 0 empty empty empty 17 7 0 10 -262144 -1
-1;
#X obj 184 213 line~;
#X obj 168 247 *~;
#X obj 144 246 *~;
#X obj 68 14 t b b;
#X obj 143 341 outlet~;
#X obj 168 314 outlet~;
#X obj -24 13 r global_stop;
#X obj 68 -9 r rpt_audio_5;
#X msg 194 120 \; pd dsp 1 \; to_line_5 0 \, 1 500 \; rpt_audio_5 bang
;
#X obj 184 187 r to_line_5;
#X obj 70 190 r volume_5;
#X msg 143 44 open radio_s.wav;
#X obj 214 95 r global_start;
#X connect 0 0 6 0;
#X connect 0 1 5 0;
#X connect 0 2 3 0;
#X connect 1 0 0 0;
#X connect 2 0 0 0;
#X connect 3 0 12 0;
#X connect 4 0 5 1;
#X connect 4 0 6 1;
#X connect 5 0 9 0;
#X connect 6 0 8 0;
#X connect 7 0 1 0;
#X connect 7 1 15 0;
#X connect 10 0 2 0;
#X connect 11 0 7 0;
#X connect 13 0 4 0;
#X connect 14 0 6 0;
#X connect 14 0 5 0;
#X connect 15 0 0 0;
#X connect 16 0 12 0;
#X restore 206 198 pd radio;
#N canvas 23 23 369 393 tv 0;
#X obj 143 72 readsf~ 2;
#X msg 68 37 start;
#X msg -24 35 stop;
#X obj 194 97 bng 15 250 50 0 empty empty empty 17 7 0 10 -262144 -1
-1;
#X obj 184 213 line~;
#X obj 168 247 *~;
#X obj 144 246 *~;
#X obj 68 14 t b b;
#X obj 143 341 outlet~;
#X obj 168 314 outlet~;
#X obj -24 13 r global_stop;
#X msg 143 44 open tv_s.wav;
#X obj 70 190 r volume_6;
#X obj 184 187 r to_line_6;
#X obj 68 -9 r rpt_audio_6;
#X msg 194 120 \; pd dsp 1 \; to_line_6 0 \, 1 500 \; rpt_audio_6 bang
;
#X obj 216 96 r global_start;
#X connect 0 0 6 0;
#X connect 0 1 5 0;
#X connect 0 2 3 0;
#X connect 1 0 0 0;
#X connect 2 0 0 0;
#X connect 3 0 15 0;
#X connect 4 0 5 1;
#X connect 4 0 6 1;
#X connect 5 0 9 0;
#X connect 6 0 8 0;
#X connect 7 0 1 0;
#X connect 7 1 11 0;
#X connect 10 0 2 0;
#X connect 11 0 0 0;
#X connect 12 0 6 0;
#X connect 12 0 5 0;
#X connect 13 0 4 0;
#X connect 14 0 7 0;
#X connect 16 0 15 0;
#X restore 207 231 pd tv;
#X msg -60 -64 \; pd dsp \$1;
#X obj -61 -87 tgl 15 0 empty empty empty 17 7 0 10 -262144 -1 -1 1
1;
#X obj 61 269 multiplex~ 1 2 3 4 5 6;
#X obj 261 269 multiplex~ 1 2 3 4 5 6;
#X obj 2 198 r input_select;
#X floatatom -67 218 5 0 5 0 - - -;
#X text -33 -91 Turn DSP On/Off;
#X obj -84 251 bng 15 250 50 0 empty empty empty 17 7 0 10 -262144
-1 -1;
#X obj 77 330 line~;
#X obj 273 328 line~;
#X msg -84 272 \; to_line_out 0 \, 1 500 \;;
#X obj 63 354 *~;
#X obj 257 354 *~;
#X obj 77 308 r to_line_out;
#X obj 273 306 r to_line_out;
#X text -35 29 Stop all audio files;
#X msg -65 147 0;
#X msg -35 146 1;
#X msg -5 145 2;
#X msg 25 144 3;
#X msg 56 143 4;
#X msg 86 142 5;
#X obj -60 -19 bng 15 250 50 0 empty empty empty 17 7 0 10 -262144
-1 -1;
#X obj -60 3 s global_start;
#X text -38 -19 Start all audio files;
#X obj 142 409 *~;
#X obj 180 410 *~;
#X obj 120 358 r master_volume;
#X text -13 114 Audio Select;
#X text 384 -28 This patch plays the audio from (at present) 6 different
inputs simultaneously. To select which audio to hear \, choose a number
from 0-5. Each input/audio player will loop it's audio file until it
receives the global stop command. Each audio player has it's own volume
receive which takes input 0 as minimum volume and 1 as max (if we decide
to give each source this function?). There is also a master volume
which takes the same min/max values (which can be implimented if we
decide to go this way?).;
#X text 205 36 Audio Players;
#N canvas 652 160 564 418 osc_things 1;
#X msg -987 -139 47 \$1 \$2 \$3 0 0 0 0 44 105 0 0 0 0 0 \$4;
#X obj -987 -113 unpackOSC;
#X obj -987 -166 udpreceive 7890;
#X obj -903 -85 routeOSC /vol /src /pst;
#X obj -987 -59 print OSCrcv;
#X obj -903 55 vsl 15 128 0.01 1 0 0 empty empty Volume 0 -9 0 10 -262144
-1 -1 11870 1;
#X obj -903 195 s master_volume;
#X obj -813 -35 s preset_select;
#X obj -858 -10 s input_select;
#X obj -903 16 expr ( $f1 - 1 ) / 127;
#X obj -858 -59 change;
#X obj -813 -59 change;
#X connect 0 0 1 0;
#X connect 1 0 4 0;
#X connect 1 0 3 0;
#X connect 2 0 0 0;
#X connect 3 0 9 0;
#X connect 3 1 10 0;
#X connect 3 2 11 0;
#X connect 5 0 6 0;
#X connect 9 0 5 0;
#X connect 10 0 8 0;
#X connect 11 0 7 0;
#X restore 467 174 pd osc_things;
#X obj 455 351 s master_volume;
#X msg 463 308 1;
#X msg 502 312 0;
#X text 462 278 check audio works;
#X obj 158 462 dac~;
#X connect 0 0 10 0;
#X connect 0 1 11 0;
#X connect 2 0 1 0;
#X connect 3 0 10 1;
#X connect 3 1 11 1;
#X connect 4 0 10 2;
#X connect 4 1 11 2;
#X connect 5 0 10 3;
#X connect 5 1 11 3;
#X connect 6 0 10 4;
#X connect 6 1 11 4;
#X connect 7 0 10 5;
#X connect 7 1 11 5;
#X connect 9 0 8 0;
#X connect 10 0 19 0;
#X connect 11 0 20 0;
#X connect 12 0 13 0;
#X connect 13 0 10 0;
#X connect 13 0 11 0;
#X connect 13 0 15 0;
#X connect 15 0 18 0;
#X connect 16 0 19 1;
#X connect 17 0 20 1;
#X connect 19 0 33 0;
#X connect 20 0 34 0;
#X connect 21 0 16 0;
#X connect 22 0 17 0;
#X connect 24 0 13 0;
#X connect 25 0 13 0;
#X connect 26 0 13 0;
#X connect 27 0 13 0;
#X connect 28 0 13 0;
#X connect 29 0 13 0;
#X connect 30 0 31 0;
#X connect 33 0 44 0;
#X connect 34 0 44 1;
#X connect 35 0 33 1;
#X connect 35 0 34 1;
#X connect 41 0 40 0;
#X connect 42 0 40 0;
