#N canvas 563 89 948 686 10;
#X declare -lib mrpeach;
#N canvas 10 23 369 393 audio_in_out 0;
#X obj 143 72 readsf~ 2;
#X msg 143 44 open audio_in_out_s.wav;
#X msg 68 37 start;
#X msg -24 35 stop;
#X obj 194 97 bng 15 250 50 0 empty empty empty 17 7 0 10 -262144 -1
-1;
#X obj 184 213 line~;
#X obj 168 247 *~;
#X obj 144 246 *~;
#X obj 184 187 r to_line_1;
#X msg 194 120 \; pd dsp 1 \; to_line_1 0 \, 1 500 \; rpt_audio_1 bang
;
#X obj 68 -9 r rpt_audio_1;
#X obj 68 14 t b b;
#X obj 143 341 outlet~;
#X obj 168 314 outlet~;
#X obj -24 13 r global_stop;
#X obj 70 190 r volume_1;
#X obj 216 95 r global_start;
#X connect 0 0 7 0;
#X connect 0 1 6 0;
#X connect 0 2 4 0;
#X connect 1 0 0 0;
#X connect 2 0 0 0;
#X connect 3 0 0 0;
#X connect 4 0 9 0;
#X connect 5 0 6 1;
#X connect 5 0 7 1;
#X connect 6 0 13 0;
#X connect 7 0 12 0;
#X connect 8 0 5 0;
#X connect 10 0 11 0;
#X connect 11 0 2 0;
#X connect 11 1 1 0;
#X connect 14 0 3 0;
#X connect 15 0 7 0;
#X connect 15 0 6 0;
#X connect 16 0 9 0;
#X restore 203 61 pd audio_in_out;
#X obj -57 51 s global_stop;
#X obj -57 29 bng 15 250 50 0 empty empty empty 17 7 0 10 -262144 -1
-1;
#N canvas 0 23 369 393 microphone 0;
#X obj 143 72 readsf~ 2;
#X msg 68 37 start;
#X msg -24 35 stop;
#X obj 194 97 bng 15 250 50 0 empty empty empty 17 7 0 10 -262144 -1
-1;
#X obj 184 213 line~;
#X obj 168 247 *~;
#X obj 144 246 *~;
#X obj 68 14 t b b;
#X obj 143 341 outlet~;
#X obj 168 314 outlet~;
#X obj -24 13 r global_stop;
#X msg 143 44 open microphone_s.wav;
#X obj 68 -9 r rpt_audio_2;
#X msg 194 120 \; pd dsp 1 \; to_line_2 0 \, 1 500 \; rpt_audio_2 bang
;
#X obj 184 187 r to_line_2;
#X obj 70 190 r volume_2;
#X obj 215 96 r global_start;
#X connect 0 0 6 0;
#X connect 0 1 5 0;
#X connect 0 2 3 0;
#X connect 1 0 0 0;
#X connect 2 0 0 0;
#X connect 3 0 13 0;
#X connect 4 0 5 1;
#X connect 4 0 6 1;
#X connect 5 0 9 0;
#X connect 6 0 8 0;
#X connect 7 0 1 0;
#X connect 7 1 11 0;
#X connect 10 0 2 0;
#X connect 11 0 0 0;
#X connect 12 0 7 0;
#X connect 14 0 4 0;
#X connect 15 0 6 0;
#X connect 15 0 5 0;
#X connect 16 0 13 0;
#X restore 204 94 pd microphone;
#N canvas 18 23 369 393 music 0;
#X obj 143 72 readsf~ 2;
#X msg 68 37 start;
#X msg -24 35 stop;
#X obj 194 97 bng 15 250 50 0 empty empty empty 17 7 0 10 -262144 -1
-1;
#X obj 184 213 line~;
#X obj 168 247 *~;
#X obj 144 246 *~;
#X obj 68 14 t b b;
#X obj 143 341 outlet~;
#X obj 168 314 outlet~;
#X obj -24 13 r global_stop;
#X obj 68 -9 r rpt_audio_3;
#X msg 143 44 open music_s.wav;
#X msg 194 120 \; pd dsp 1 \; to_line_3 0 \, 1 500 \; rpt_audio_3 bang
;
#X obj 184 187 r to_line_3;
#X obj 70 190 r volume_3;
#X obj 215 96 r global_start;
#X connect 0 0 6 0;
#X connect 0 1 5 0;
#X connect 0 2 3 0;
#X connect 1 0 0 0;
#X connect 2 0 0 0;
#X connect 3 0 13 0;
#X connect 4 0 5 1;
#X connect 4 0 6 1;
#X connect 5 0 9 0;
#X connect 6 0 8 0;
#X connect 7 0 1 0;
#X connect 7 1 12 0;
#X connect 10 0 2 0;
#X connect 11 0 7 0;
#X connect 12 0 0 0;
#X connect 14 0 4 0;
#X connect 15 0 6 0;
#X connect 15 0 5 0;
#X connect 16 0 13 0;
#X restore 204 129 pd music;
#N canvas 74 37 369 393 phone 0;
#X obj 143 72 readsf~ 2;
#X msg 68 37 start;
#X msg -24 35 stop;
#X obj 194 97 bng 15 250 50 0 empty empty empty 17 7 0 10 -262144 -1
-1;
#X obj 184 213 line~;
#X obj 168 247 *~;
#X obj 144 246 *~;
#X obj 68 14 t b b;
#X obj 143 341 outlet~;
#X obj 168 314 outlet~;
#X obj -24 13 r global_stop;
#X obj 68 -9 r rpt_audio_4;
#X msg 143 44 open phone_s.wav;
#X msg 194 120 \; pd dsp 1 \; to_line_4 0 \, 1 500 \; rpt_audio_4 bang
;
#X obj 184 187 r to_line_4;
#X obj 70 190 r volume_4;
#X obj 214 97 r global_start;
#X connect 0 0 6 0;
#X connect 0 1 5 0;
#X connect 0 2 3 0;
#X connect 1 0 0 0;
#X connect 2 0 0 0;
#X connect 3 0 13 0;
#X connect 4 0 5 1;
#X connect 4 0 6 1;
#X connect 5 0 9 0;
#X connect 6 0 8 0;
#X connect 7 0 1 0;
#X connect 7 1 12 0;
#X connect 10 0 2 0;
#X connect 11 0 7 0;
#X connect 12 0 0 0;
#X connect 14 0 4 0;
#X connect 15 0 6 0;
#X connect 15 0 5 0;
#X connect 16 0 13 0;
#X restore 205 162 pd phone;
#N canvas 40 27 369 393 radio 0;
#X obj 143 72 readsf~ 2;
#X msg 68 37 start;
#X msg -24 35 stop;
#X obj 194 97 bng 15 250 50 0 empty empty empty 17 7 0 10 -262144 -1
-1;
#X obj 184 213 line~;
#X obj 168 247 *~;
#X obj 144 246 *~;
#X obj 68 14 t b b;
#X obj 143 341 outlet~;
#X obj 168 314 outlet~;
#X obj -24 13 r global_stop;
#X obj 68 -9 r rpt_audio_5;
#X msg 194 120 \; pd dsp 1 \; to_line_5 0 \, 1 500 \; rpt_audio_5 bang
;
#X obj 184 187 r to_line_5;
#X obj 70 190 r volume_5;
#X msg 143 44 open radio_s.wav;
#X obj 214 95 r global_start;
#X connect 0 0 6 0;
#X connect 0 1 5 0;
#X connect 0 2 3 0;
#X connect 1 0 0 0;
#X connect 2 0 0 0;
#X connect 3 0 12 0;
#X connect 4 0 5 1;
#X connect 4 0 6 1;
#X connect 5 0 9 0;
#X connect 6 0 8 0;
#X connect 7 0 1 0;
#X connect 7 1 15 0;
#X connect 10 0 2 0;
#X connect 11 0 7 0;
#X connect 13 0 4 0;
#X connect 14 0 6 0;
#X connect 14 0 5 0;
#X connect 15 0 0 0;
#X connect 16 0 12 0;
#X restore 206 198 pd radio;
#N canvas 23 23 369 393 tv 0;
#X obj 143 72 readsf~ 2;
#X msg 68 37 start;
#X msg -24 35 stop;
#X obj 194 97 bng 15 250 50 0 empty empty empty 17 7 0 10 -262144 -1
-1;
#X obj 184 213 line~;
#X obj 168 247 *~;
#X obj 144 246 *~;
#X obj 68 14 t b b;
#X obj 143 341 outlet~;
#X obj 168 314 outlet~;
#X obj -24 13 r global_stop;
#X msg 143 44 open tv_s.wav;
#X obj 70 190 r volume_6;
#X obj 184 187 r to_line_6;
#X obj 68 -9 r rpt_audio_6;
#X msg 194 120 \; pd dsp 1 \; to_line_6 0 \, 1 500 \; rpt_audio_6 bang
;
#X obj 216 96 r global_start;
#X connect 0 0 6 0;
#X connect 0 1 5 0;
#X connect 0 2 3 0;
#X connect 1 0 0 0;
#X connect 2 0 0 0;
#X connect 3 0 15 0;
#X connect 4 0 5 1;
#X connect 4 0 6 1;
#X connect 5 0 9 0;
#X connect 6 0 8 0;
#X connect 7 0 1 0;
#X connect 7 1 11 0;
#X connect 10 0 2 0;
#X connect 11 0 0 0;
#X connect 12 0 6 0;
#X connect 12 0 5 0;
#X connect 13 0 4 0;
#X connect 14 0 7 0;
#X connect 16 0 15 0;
#X restore 207 231 pd tv;
#X msg -60 -64 \; pd dsp \$1;
#X obj -61 -87 tgl 15 0 empty empty empty 17 7 0 10 -262144 -1 -1 0
1;
#X obj 61 269 multiplex~ 1 2 3 4 5 6;
#X obj 261 269 multiplex~ 1 2 3 4 5 6;
#X obj -74 197 r input_select;
#X floatatom -84 218 5 0 5 0 - - -;
#X text -33 -91 Turn DSP On/Off;
#X obj -84 251 bng 15 250 50 0 empty empty empty 17 7 0 10 -262144
-1 -1;
#X obj 75 330 line~;
#X obj 277 328 line~;
#X msg -84 272 \; to_line_out 0 \, 1 500 \;;
#X obj 61 354 *~;
#X obj 261 354 *~;
#X obj 75 308 r to_line_out;
#X obj 277 306 r to_line_out;
#X text -35 29 Stop all audio files;
#X obj -60 -19 bng 15 250 50 0 empty empty empty 17 7 0 10 -262144
-1 -1;
#X obj -60 3 s global_start;
#X text -38 -19 Start all audio files;
#X obj 142 409 *~;
#X obj 180 410 *~;
#X obj 124 358 r master_volume;
#X text 384 -28 This patch plays the audio from (at present) 6 different
inputs simultaneously. To select which audio to hear \, choose a number
from 0-5. Each input/audio player will loop it's audio file until it
receives the global stop command. Each audio player has it's own volume
receive which takes input 0 as minimum volume and 1 as max (if we decide
to give each source this function?). There is also a master volume
which takes the same min/max values (which can be implimented if we
decide to go this way?).;
#X text 205 36 Audio Players;
#N canvas 572 278 596 317 osc_things 1;
#X msg -987 -139 47 \$1 \$2 \$3 0 0 0 0 44 105 0 0 0 0 0 \$4;
#X obj -987 -113 unpackOSC;
#X obj -987 -166 udpreceive 7890;
#X obj -903 -85 routeOSC /vol /src /pst;
#X obj -987 -59 print OSCrcv;
#X obj -813 -35 s preset_select;
#X obj -858 -10 s input_select;
#X obj -903 16 expr ( $f1 - 1 ) / 127;
#X obj -858 -59 change;
#X obj -813 -59 change;
#X obj -519 -163 import mrpeach;
#X obj -903 46 s volume_slider;
#X obj -858 -35 - 1;
#N canvas 0 423 601 412 rotation 1;
#X obj -697 -88 vsl 15 248 0 127 0 0 empty empty empty 0 -9 0 10 -262144
-1 -1 0 1;
#X obj -598 218 print;
#X obj -574 196 spigot;
#X floatatom -575 -57 5 1 200 0 - - -;
#X floatatom -560 61 5 0 0 0 - - -;
#X msg -515 -4 set;
#X obj -515 19 list append;
#X obj -515 41 list trim;
#X obj -575 81 -;
#X obj -575 100 abs;
#X floatatom -497 124 5 0 0 0 - - -;
#X obj -652 35 / 127;
#X msg -572 156 0;
#X msg -526 156 1;
#X obj -560 -28 delay 20;
#X obj -575 125 moses 0.015;
#X text -678 -73 test slider;
#X text -458 123 minimum change required to pass value here is 1.5%
;
#X text -552 217 Output is thresholded rotation value;
#X text -500 -28 time between comparison values for rotation;
#X connect 0 0 11 0;
#X connect 2 0 1 0;
#X connect 3 0 6 1;
#X connect 3 0 8 0;
#X connect 3 0 14 0;
#X connect 4 0 8 1;
#X connect 5 0 6 0;
#X connect 6 0 7 0;
#X connect 7 0 4 0;
#X connect 8 0 9 0;
#X connect 9 0 10 0;
#X connect 9 0 15 0;
#X connect 11 0 2 0;
#X connect 11 0 3 0;
#X connect 12 0 2 1;
#X connect 13 0 2 1;
#X connect 14 0 5 0;
#X connect 14 0 4 0;
#X connect 15 0 12 0;
#X connect 15 1 13 0;
#X restore -961 105 pd rotation threshold;
#X connect 0 0 1 0;
#X connect 1 0 4 0;
#X connect 1 0 3 0;
#X connect 2 0 0 0;
#X connect 3 0 7 0;
#X connect 3 1 8 0;
#X connect 3 2 9 0;
#X connect 7 0 11 0;
#X connect 8 0 12 0;
#X connect 9 0 5 0;
#X connect 12 0 6 0;
#X restore 467 174 pd osc_things;
#X obj 473 371 s master_volume;
#X obj 158 462 dac~;
#X obj 473 236 vsl 15 128 0 1 0 0 empty empty Volume 0 -9 0 10 -262144
-1 -1 12700 1;
#X obj 468 199 r volume_slider;
#X obj -167 68 vradio 25 1 0 6 empty input_select Audio_Select 0 -8
0 10 -262144 -1 -1 0;
#X text -139 69 Aux;
#X text -139 95 Microphone;
#X text -139 120 Music;
#X text -140 145 Phone;
#X text -140 170 Radio;
#X text -138 195 TV;
#X connect 0 0 10 0;
#X connect 0 1 11 0;
#X connect 2 0 1 0;
#X connect 3 0 10 1;
#X connect 3 1 11 1;
#X connect 4 0 10 2;
#X connect 4 1 11 2;
#X connect 5 0 10 3;
#X connect 5 1 11 3;
#X connect 6 0 10 4;
#X connect 6 1 11 4;
#X connect 7 0 10 5;
#X connect 7 1 11 5;
#X connect 9 0 8 0;
#X connect 10 0 19 0;
#X connect 11 0 20 0;
#X connect 12 0 13 0;
#X connect 13 0 10 0;
#X connect 13 0 11 0;
#X connect 13 0 15 0;
#X connect 15 0 18 0;
#X connect 16 0 19 1;
#X connect 17 0 20 1;
#X connect 19 0 27 0;
#X connect 20 0 28 0;
#X connect 21 0 16 0;
#X connect 22 0 17 0;
#X connect 24 0 25 0;
#X connect 27 0 34 0;
#X connect 28 0 34 1;
#X connect 29 0 27 1;
#X connect 29 0 28 1;
#X connect 35 0 33 0;
#X connect 36 0 35 0;
#X connect 37 0 13 0;
