#N canvas 398 168 650 572 10;
#X declare -lib mrpeach;
#X obj 130 -255 cnv 15 375 130 empty empty empty 20 12 0 14 -204786
-66577 0;
#X obj -93 -255 cnv 15 175 175 empty empty empty 20 12 0 14 -261234
-66577 0;
#X obj -78 -106 s global_stop;
#X obj -78 -128 bng 15 250 50 0 empty empty empty 17 7 0 10 -258113
-1 -1;
#X msg -81 -221 \; pd dsp \$1;
#X obj -81 -246 tgl 15 0 empty empty empty 17 7 0 10 -204786 -1 -1
0 1;
#X text -54 -248 Turn DSP On/Off;
#X text -56 -128 Stop all audio files;
#X obj -81 -176 bng 15 250 50 0 empty empty empty 17 7 0 10 -4034 -1
-1;
#X obj -81 -154 s global_start;
#X text -59 -176 Start all audio files;
#X obj -68 -35 cnv 15 115 310 empty empty empty 20 12 0 14 -204800
-66577 0;
#X text -45 149 Audio Players;
#X obj -30 249 dac~;
#N canvas 174 143 1045 584 Audio 0;
#N canvas 367 22 369 393 audio_in_out 0;
#X obj 143 72 readsf~ 2;
#X msg 143 44 open audio_in_out_s.wav;
#X msg 68 37 start;
#X msg -24 35 stop;
#X obj 194 97 bng 15 250 50 0 empty empty empty 17 7 0 10 -262144 -1
-1;
#X obj 184 213 line~;
#X obj 168 247 *~;
#X obj 144 246 *~;
#X obj 184 187 r to_line_1;
#X msg 194 120 \; pd dsp 1 \; to_line_1 0 \, 1 500 \; rpt_audio_1 bang
;
#X obj 68 -9 r rpt_audio_1;
#X obj 68 14 t b b;
#X obj 143 341 outlet~;
#X obj 168 314 outlet~;
#X obj -24 13 r global_stop;
#X obj 70 190 r volume_1;
#X obj 216 95 r global_start;
#X connect 0 0 7 0;
#X connect 0 1 6 0;
#X connect 0 2 4 0;
#X connect 1 0 0 0;
#X connect 2 0 0 0;
#X connect 3 0 0 0;
#X connect 4 0 9 0;
#X connect 5 0 6 1;
#X connect 5 0 7 1;
#X connect 6 0 13 0;
#X connect 7 0 12 0;
#X connect 8 0 5 0;
#X connect 10 0 11 0;
#X connect 11 0 2 0;
#X connect 11 1 1 0;
#X connect 14 0 3 0;
#X connect 15 0 7 0;
#X connect 15 0 6 0;
#X connect 16 0 9 0;
#X restore 353 -243 pd audio_in_out;
#N canvas 0 23 369 393 microphone 0;
#X obj 143 72 readsf~ 2;
#X msg 68 37 start;
#X msg -24 35 stop;
#X obj 194 97 bng 15 250 50 0 empty empty empty 17 7 0 10 -262144 -1
-1;
#X obj 184 213 line~;
#X obj 168 247 *~;
#X obj 144 246 *~;
#X obj 68 14 t b b;
#X obj 143 341 outlet~;
#X obj 168 314 outlet~;
#X obj -24 13 r global_stop;
#X msg 143 44 open microphone_s.wav;
#X obj 68 -9 r rpt_audio_2;
#X msg 194 120 \; pd dsp 1 \; to_line_2 0 \, 1 500 \; rpt_audio_2 bang
;
#X obj 184 187 r to_line_2;
#X obj 80 197 r volume_2;
#X obj 215 96 r global_start;
#X obj -19 197 catch~ feedback;
#X connect 0 0 6 0;
#X connect 0 1 5 0;
#X connect 0 2 3 0;
#X connect 1 0 0 0;
#X connect 2 0 0 0;
#X connect 3 0 13 0;
#X connect 4 0 5 1;
#X connect 4 0 6 1;
#X connect 5 0 9 0;
#X connect 6 0 8 0;
#X connect 7 0 1 0;
#X connect 7 1 11 0;
#X connect 10 0 2 0;
#X connect 11 0 0 0;
#X connect 12 0 7 0;
#X connect 14 0 4 0;
#X connect 15 0 6 0;
#X connect 15 0 5 0;
#X connect 16 0 13 0;
#X connect 17 0 5 0;
#X connect 17 0 6 0;
#X restore 354 -210 pd microphone;
#N canvas 18 23 369 393 music 0;
#X obj 143 72 readsf~ 2;
#X msg 68 37 start;
#X msg -24 35 stop;
#X obj 194 97 bng 15 250 50 0 empty empty empty 17 7 0 10 -262144 -1
-1;
#X obj 184 213 line~;
#X obj 168 247 *~;
#X obj 144 246 *~;
#X obj 68 14 t b b;
#X obj 143 341 outlet~;
#X obj 168 314 outlet~;
#X obj -24 13 r global_stop;
#X obj 68 -9 r rpt_audio_3;
#X msg 143 44 open music_s.wav;
#X msg 194 120 \; pd dsp 1 \; to_line_3 0 \, 1 500 \; rpt_audio_3 bang
;
#X obj 184 187 r to_line_3;
#X obj 70 190 r volume_3;
#X obj 215 96 r global_start;
#X connect 0 0 6 0;
#X connect 0 1 5 0;
#X connect 0 2 3 0;
#X connect 1 0 0 0;
#X connect 2 0 0 0;
#X connect 3 0 13 0;
#X connect 4 0 5 1;
#X connect 4 0 6 1;
#X connect 5 0 9 0;
#X connect 6 0 8 0;
#X connect 7 0 1 0;
#X connect 7 1 12 0;
#X connect 10 0 2 0;
#X connect 11 0 7 0;
#X connect 12 0 0 0;
#X connect 14 0 4 0;
#X connect 15 0 6 0;
#X connect 15 0 5 0;
#X connect 16 0 13 0;
#X restore 354 -175 pd music;
#N canvas 74 37 369 393 phone 0;
#X obj 143 72 readsf~ 2;
#X msg 68 37 start;
#X msg -24 35 stop;
#X obj 194 97 bng 15 250 50 0 empty empty empty 17 7 0 10 -262144 -1
-1;
#X obj 184 213 line~;
#X obj 168 247 *~;
#X obj 143 247 *~;
#X obj 68 14 t b b;
#X obj 143 335 outlet~;
#X obj 168 314 outlet~;
#X obj -24 13 r global_stop;
#X obj 68 -9 r rpt_audio_4;
#X msg 143 44 open phone_s.wav;
#X msg 194 120 \; pd dsp 1 \; to_line_4 0 \, 1 500 \; rpt_audio_4 bang
;
#X obj 184 187 r to_line_4;
#X obj 70 190 r volume_4;
#X obj 214 97 r global_start;
#X obj -17 189 catch~ noise;
#X connect 0 0 6 0;
#X connect 0 1 5 0;
#X connect 0 2 3 0;
#X connect 1 0 0 0;
#X connect 2 0 0 0;
#X connect 3 0 13 0;
#X connect 4 0 5 1;
#X connect 4 0 6 1;
#X connect 5 0 9 0;
#X connect 6 0 8 0;
#X connect 7 0 1 0;
#X connect 7 1 12 0;
#X connect 10 0 2 0;
#X connect 11 0 7 0;
#X connect 12 0 0 0;
#X connect 14 0 4 0;
#X connect 15 0 6 0;
#X connect 15 0 5 0;
#X connect 16 0 13 0;
#X connect 17 0 6 0;
#X connect 17 0 5 0;
#X restore 355 -142 pd phone;
#N canvas 848 367 369 393 radio 0;
#X obj 143 72 readsf~ 2;
#X msg 68 37 start;
#X msg -24 35 stop;
#X obj 194 97 bng 15 250 50 0 empty empty empty 17 7 0 10 -262144 -1
-1;
#X obj 184 213 line~;
#X obj 168 247 *~;
#X obj 144 246 *~;
#X obj 68 14 t b b;
#X obj 143 299 outlet~;
#X obj 206 304 outlet~;
#X obj -24 13 r global_stop;
#X obj 68 -9 r rpt_audio_5;
#X msg 194 120 \; pd dsp 1 \; to_line_5 0 \, 1 500 \; rpt_audio_5 bang
;
#X obj 184 187 r to_line_5;
#X obj 70 190 r volume_5;
#X msg 143 44 open radio_s.wav;
#X obj 214 95 r global_start;
#X obj 143 272 hip~ 500;
#X obj 205 272 hip~ 500;
#X obj 212 245 r freqbass;
#X connect 0 0 6 0;
#X connect 0 1 5 0;
#X connect 0 2 3 0;
#X connect 1 0 0 0;
#X connect 2 0 0 0;
#X connect 3 0 12 0;
#X connect 4 0 5 1;
#X connect 4 0 6 1;
#X connect 5 0 18 0;
#X connect 6 0 17 0;
#X connect 7 0 1 0;
#X connect 7 1 15 0;
#X connect 10 0 2 0;
#X connect 11 0 7 0;
#X connect 13 0 4 0;
#X connect 14 0 6 0;
#X connect 14 0 5 0;
#X connect 15 0 0 0;
#X connect 16 0 12 0;
#X connect 17 0 8 0;
#X connect 18 0 9 0;
#X connect 19 0 18 1;
#X connect 19 0 17 1;
#X restore 356 -106 pd radio;
#N canvas 23 23 369 393 tv 0;
#X obj -146 -64 readsf~ 2;
#X msg -221 -99 start;
#X msg -313 -101 stop;
#X obj -95 -39 bng 15 250 50 0 empty empty empty 17 7 0 10 -262144
-1 -1;
#X obj -105 77 line~;
#X obj -121 111 *~;
#X obj -145 110 *~;
#X obj -221 -122 t b b;
#X obj -146 205 outlet~;
#X obj -121 178 outlet~;
#X obj -313 -123 r global_stop;
#X msg -146 -92 open tv_s.wav;
#X obj -219 54 r volume_6;
#X obj -105 51 r to_line_6;
#X obj -221 -145 r rpt_audio_6;
#X msg -95 -16 \; pd dsp 1 \; to_line_6 0 \, 1 500 \; rpt_audio_6 bang
;
#X obj -73 -40 r global_start;
#X obj -123 145 lop~;
#X obj -154 169 lop~;
#X obj -43 121 r freqtreb;
#X connect 0 0 6 0;
#X connect 0 1 5 0;
#X connect 0 2 3 0;
#X connect 1 0 0 0;
#X connect 2 0 0 0;
#X connect 3 0 15 0;
#X connect 4 0 5 1;
#X connect 4 0 6 1;
#X connect 5 0 17 0;
#X connect 6 0 18 0;
#X connect 7 0 1 0;
#X connect 7 1 11 0;
#X connect 10 0 2 0;
#X connect 11 0 0 0;
#X connect 12 0 6 0;
#X connect 12 0 5 0;
#X connect 13 0 4 0;
#X connect 14 0 7 0;
#X connect 16 0 15 0;
#X connect 17 0 9 0;
#X connect 18 0 8 0;
#X connect 19 0 17 1;
#X connect 19 0 18 1;
#X restore 357 -73 pd tv;
#X obj 224 26 line~;
#X obj 427 24 line~;
#X obj 210 50 *~;
#X obj 411 50 *~;
#X obj 224 4 r to_line_out;
#X obj 427 2 r to_line_out;
#X obj 279 105 *~;
#X obj 330 106 *~;
#X obj 274 54 r master_volume;
#X obj 76 -154 r input_select;
#X floatatom 76 -129 5 0 5 0 - - -;
#X obj 76 -105 bng 15 250 50 0 empty empty empty 17 7 0 10 -262144
-1 -1;
#X msg 9 -78 \; to_line_out 0 \, 1 500 \;;
#X obj 279 135 outlet~;
#X obj 330 135 outlet~;
#X obj 34 -153 inlet;
#X text -45 -311 Each audio sub_patch sends a stereo signal from it's
bottom two outputs (1+2 or L+R). The signals are then sent to the [multiplex~]
objects which act as a gate \, only passing the signal from the channel
number it receives. The channel numbers are received from the 'Audio_Select'
radio object in the main patch and the [r Input_select]. To avoid clicks
in the audio \, there is a [line~] object that ramps the gain from
0 to 1 over 500ms every time the channel is changed. This signal is
then sent to the next gain which is multipled by 0 to 1 from the [r
master_volume] before being sent to the left and right [outlet~]'s.
;
#X obj -35 -153 loadbang 0;
#X obj 209 -38 multiplex~ 1 2 3 4 5 6;
#X obj 411 -35 multiplex~ 1 2 3 4 5 6;
#X floatatom 552 -274 5 0 5 0 - - -;
#X obj 539 -250 bng 15 250 50 0 empty empty empty 17 7 0 10 -262144
-1 -1;
#X obj 510 -298 inlet;
#X obj 441 -298 loadbang 0;
#N canvas 235 686 450 300 bass_boost 0;
#X obj -168 -35 inlet;
#X obj -168 13 bng 15 250 50 0 empty empty empty 17 7 0 10 -262144
-1 -1;
#X obj -168 -12 route 2;
#X msg -138 31 0;
#X obj -102 68 s freqbass;
#X obj -106 -12 r inputnum;
#X msg -106 30 2000;
#X connect 0 0 2 0;
#X connect 2 0 1 0;
#X connect 2 0 3 0;
#X connect 3 0 4 0;
#X connect 5 0 6 0;
#X connect 6 0 4 0;
#X restore 576 -213 pd bass_boost;
#N canvas 774 468 450 300 treble_boost 0;
#X obj -486 -223 inlet;
#X obj -486 -175 bng 15 250 50 0 empty empty empty 17 7 0 10 -262144
-1 -1;
#X obj -424 -200 r inputnum;
#X obj -420 -120 s freqtreb;
#X msg -456 -157 44100;
#X msg -417 -154 300;
#X obj -486 -200 route 3;
#X connect 0 0 6 0;
#X connect 2 0 5 0;
#X connect 4 0 3 0;
#X connect 5 0 3 0;
#X connect 6 0 1 0;
#X connect 6 0 4 0;
#X restore 675 -214 pd treble_boost;
#X obj 552 -299 r preset_select;
#N canvas 906 219 450 300 noise_reduce 0;
#X obj -169 -1 inlet;
#X obj -164 54 bng 15 250 50 0 empty empty empty 17 7 0 10 -262144
-1 -1;
#X obj -169 78 cnv 15 100 60 empty empty empty 20 12 0 14 -258113 -66577
0;
#X obj -141 112 noise~;
#X text -142 84 Noise;
#X obj -166 25 route 0;
#X obj -141 150 *~ 0.5;
#X obj -142 180 throw~ noise;
#X msg -78 113 0;
#X msg -47 117 0.05;
#X obj -50 65 r inputnum;
#X connect 0 0 5 0;
#X connect 3 0 6 0;
#X connect 5 0 1 0;
#X connect 5 0 8 0;
#X connect 6 0 7 0;
#X connect 8 0 6 1;
#X connect 9 0 6 1;
#X connect 10 0 9 0;
#X restore 577 -238 pd noise_reduce;
#N canvas 1325 424 538 458 feedback_killer 0;
#X obj 3 -19 inlet;
#X obj 102 -4 cnv 15 270 360 empty empty empty 20 12 0 14 -260097 -66577
0;
#X obj 114 334 *~ 0.5;
#X obj 202 334 *~ 0.5;
#X obj 114 307 cycle~ 990;
#X obj 202 306 cycle~ 1020;
#X floatatom 164 136 5 0 0 0 - - -;
#X floatatom 203 137 5 0 0 0 - - -;
#X obj 202 160 / 2;
#X msg 114 237 \$1 500;
#X obj 114 262 line~;
#X obj 114 214 -;
#X msg 202 238 \$1 500;
#X obj 202 263 line~;
#X obj 202 215 +;
#X obj 202 185 t b f;
#X obj 114 188 t b f;
#X obj 203 82 metro 1000;
#X obj 203 59 tgl 15 0 empty empty empty 17 7 0 10 -262144 -1 -1 1
1;
#X obj 203 29 loadbang;
#X msg 164 84 6000;
#X msg 280 81 2;
#X obj 203 112 counter;
#X msg 311 81 0;
#X msg 341 81 23;
#X text 112 2 Feedback Simulator;
#X msg 3 303 0;
#X obj 114 367 throw~ feedback;
#X obj 282 304 r set_off;
#X obj 27 256 r inputnum;
#X obj 29 278 bng 15 250 50 0 empty empty empty 17 7 0 10 -262144 -1
-1;
#X obj 5 5 route 1;
#X msg 31 300 0.01;
#X connect 0 0 31 0;
#X connect 2 0 27 0;
#X connect 3 0 27 0;
#X connect 4 0 2 0;
#X connect 5 0 3 0;
#X connect 6 0 14 0;
#X connect 6 0 11 0;
#X connect 7 0 8 0;
#X connect 8 0 15 0;
#X connect 8 0 16 0;
#X connect 9 0 10 0;
#X connect 10 0 4 0;
#X connect 11 0 9 0;
#X connect 12 0 13 0;
#X connect 13 0 5 0;
#X connect 14 0 12 0;
#X connect 15 0 14 0;
#X connect 15 1 14 1;
#X connect 16 0 11 0;
#X connect 16 1 11 1;
#X connect 17 0 22 0;
#X connect 18 0 17 0;
#X connect 19 0 18 0;
#X connect 19 0 20 0;
#X connect 19 0 21 0;
#X connect 19 0 23 0;
#X connect 19 0 24 0;
#X connect 20 0 6 0;
#X connect 21 0 22 1;
#X connect 22 0 7 0;
#X connect 23 0 22 2;
#X connect 24 0 22 4;
#X connect 26 0 2 1;
#X connect 26 0 3 1;
#X connect 28 0 2 1;
#X connect 28 0 3 1;
#X connect 29 0 30 0;
#X connect 30 0 32 0;
#X connect 31 0 26 0;
#X connect 32 0 2 1;
#X connect 32 0 3 1;
#X restore 676 -239 pd feedback_killer;
#X obj 97 -109 s inputnum;
#X obj 160 -76 r inputnum;
#X obj 464 -90 r inputnum;
#X connect 0 0 24 0;
#X connect 0 1 25 0;
#X connect 1 0 24 1;
#X connect 1 1 25 1;
#X connect 2 0 24 2;
#X connect 2 1 25 2;
#X connect 3 0 24 3;
#X connect 3 1 25 3;
#X connect 4 0 24 4;
#X connect 4 1 25 4;
#X connect 5 0 24 5;
#X connect 5 1 25 5;
#X connect 6 0 8 1;
#X connect 7 0 9 1;
#X connect 8 0 12 0;
#X connect 9 0 13 0;
#X connect 10 0 6 0;
#X connect 11 0 7 0;
#X connect 12 0 19 0;
#X connect 13 0 20 0;
#X connect 14 0 12 1;
#X connect 14 0 13 1;
#X connect 15 0 16 0;
#X connect 16 0 17 0;
#X connect 16 0 35 0;
#X connect 17 0 18 0;
#X connect 21 0 16 0;
#X connect 23 0 16 0;
#X connect 24 0 8 0;
#X connect 25 0 9 0;
#X connect 26 0 27 0;
#X connect 26 0 30 0;
#X connect 26 0 33 0;
#X connect 26 0 34 0;
#X connect 26 0 31 0;
#X connect 28 0 26 0;
#X connect 29 0 26 0;
#X connect 32 0 26 0;
#X connect 36 0 24 0;
#X connect 37 0 25 0;
#X restore -59 170 pd Audio Players;
#X obj 261 -36 cnv 15 110 290 empty empty empty 20 12 0 14 -261682
-66577 0;
#N canvas 426 168 676 533 osc_things 0;
#X msg -987 -139 47 \$1 \$2 \$3 0 0 0 0 44 105 0 0 0 0 0 \$4;
#X obj -987 -113 unpackOSC;
#X obj -987 -166 udpreceive 7890;
#X obj -987 -59 print OSCrcv;
#X obj -813 -33 s preset_select;
#X obj -903 24 expr ( $f1 - 1 ) / 127;
#X obj -813 -57 change;
#X obj -519 -163 import mrpeach;
#X obj -903 51 s volume_slider;
#X obj -858 -57 - 1;
#N canvas 715 107 645 424 rotation 0;
#X obj -782 -88 vsl 15 248 0 127 0 0 empty empty empty 0 -9 0 10 -262144
-1 -1 0 1;
#X obj -659 196 spigot;
#X floatatom -660 -57 5 1 200 0 - - -;
#X floatatom -645 61 5 0 0 0 - - -;
#X msg -600 -4 set;
#X obj -600 19 list append;
#X obj -600 41 list trim;
#X obj -660 81 -;
#X obj -660 100 abs;
#X floatatom -582 124 5 0 0 0 - - -;
#X msg -657 156 0;
#X msg -611 156 1;
#X obj -645 -28 delay 20;
#X obj -660 125 moses 0.015;
#X text -763 -73 test slider;
#X text -543 123 minimum change required to pass value here is 1.5%
;
#X text -585 -28 time between comparison values for rotation;
#X obj -741 -21 inlet;
#X obj -659 258 s input_select;
#X obj -737 35 expr $f1 / 127 * 6;
#X obj -659 218 int;
#X obj -659 238 change;
#X text -561 261 Output is thresholded source number and bang only
when change;
#X connect 0 0 19 0;
#X connect 1 0 20 0;
#X connect 2 0 5 1;
#X connect 2 0 7 0;
#X connect 2 0 12 0;
#X connect 3 0 7 1;
#X connect 4 0 5 0;
#X connect 5 0 6 0;
#X connect 6 0 3 0;
#X connect 7 0 8 0;
#X connect 8 0 9 0;
#X connect 8 0 13 0;
#X connect 10 0 1 1;
#X connect 11 0 1 1;
#X connect 12 0 4 0;
#X connect 12 0 3 0;
#X connect 13 0 10 0;
#X connect 13 1 11 0;
#X connect 17 0 19 0;
#X connect 19 0 1 0;
#X connect 19 0 2 0;
#X connect 20 0 21 0;
#X connect 21 0 18 0;
#X restore -858 -5 pd rotation threshold;
#X obj -903 -85 routeOSC /vol /src /pst /ulk;
#X obj -767 -57 s unlocked;
#X text -977 211 udpreceive receives 4 ASCII values from C++ via port
7890 (in this case) OSC values are formatted in groups of four so that
unpackOSC can read and translate from 'ASCII list' to values that Pd
understands. 1 = / 2 = v- 3 = o- 4 = l- 5 = 0 6 = 0 7 = 0 8 = 0 9 =
\, 10 =i 11 =0 12 =0 13 =0 14 =0 15 =0 16 = 1-127 (received value to
use with the adress)- routeOSC reads the unpacked OSC data and routes
the values to an output denpendant on the address (first four values
in the ASCII list). vol = volume src = source pst = presets ulk = locked/unlocked
MYO;
#X msg -733 -141 \$1\$2\$3;
#X obj -733 -118 s gestcount;
#X connect 0 0 1 0;
#X connect 1 0 3 0;
#X connect 1 0 11 0;
#X connect 2 0 0 0;
#X connect 2 0 14 0;
#X connect 5 0 8 0;
#X connect 6 0 4 0;
#X connect 9 0 10 0;
#X connect 11 0 5 0;
#X connect 11 1 9 0;
#X connect 11 2 6 0;
#X connect 11 3 12 0;
#X connect 14 0 15 0;
#X restore 267 24 pd osc_things;
#X obj 273 221 s master_volume;
#X obj 273 86 vsl 85 128 0 1 0 0 empty empty Volume 0 -9 0 10 -204786
-258113 -4160 0 1;
#X obj 268 49 r volume_slider;
#X obj -59 -11 vradio 25 1 0 6 empty input_select Audio_Select 0 -8
0 10 -262144 -1 -1 0;
#X text -31 -10 Aux;
#X text -31 16 Microphone;
#X text -31 41 Music;
#X text -32 66 Phone;
#X text -32 91 Radio;
#X text -30 116 TV;
#X text 138 -251 This patch plays the audio from (at present) 6 different
inputs simultaneously. To select which audio to hear \, choose a source
from the radio object (a number from 0-5). Each input/audio player
will loop it's audio file until it receives the global stop command.
Each audio player has it's own volume receive which takes input 0 as
minimum volume and 1 as max (if we decide to give each source this
function?). There is also a master volume which takes the same min/max
values.;
#X text 125 -263 comment;
#X obj 56 -33 cnv 15 130 150 empty empty empty 20 12 0 14 -257985 -66577
0;
#X obj 61 -10 vradio 25 1 0 4 empty preset_select Preset_Select 0 -8
0 10 -262144 -1 -1 0;
#X text 89 -9 Noise Reduction;
#X text 89 42 Bass Boost;
#X text 88 67 Treble Boost;
#X text 89 17 Feedback Killer;
#N canvas 674 225 591 497 phone_osc 0;
#X obj 15 -1060 unpackOSC;
#X obj 15 -994 select 1;
#X obj 74 -996 s vm;
#X obj 116 -948 s p1;
#X obj 139 -923 s p2;
#X obj 162 -901 s p3;
#X obj 185 -881 s p4;
#X obj 116 -976 select 1 2 3;
#X obj 252 -970 int;
#X msg 252 -947 set \$1;
#X msg 252 -918 5;
#X obj 15 -1019 routeOSC /volume /vmute /preset /setsource /source
;
#X obj 193 -933 bng 15 250 50 0 empty empty empty 17 7 0 10 -262144
-1 -1;
#X obj 15 -1096 udpreceive 9000;
#X obj 252 -894 s input_select;
#N canvas 823 285 379 357 step_volume 0;
#X msg 61 -805 set \$1;
#X msg 145 -779 0.822835;
#X msg -12 -778 0.822835;
#X obj 65 -842 clip 0 1;
#X obj 46 -891 r master_volume;
#X obj 65 -863 r step_volume;
#X msg 58 -670 \; volume_slider \$1 \; step_volume \$1;
#X obj -12 -816 inlet;
#X obj 145 -814 inlet;
#X obj -12 -756 + 0.25;
#X obj 146 -758 - 0.25;
#X obj 207 -814 inlet;
#X text -16 -837 Increase;
#X text 143 -835 Decrease;
#X text 210 -834 Mute;
#X obj 58 -691 *;
#X obj 220 -742 t b f;
#X obj -5 -866 bng 15 250 50 0 empty empty empty 17 7 0 10 -262144
-1 -1;
#X floatatom 58 -724 5 0 0 0 - - -;
#X obj 207 -790 select 0;
#X msg 207 -765 1;
#X msg 252 -765 0;
#X text -4 -611 This subpatch receive a bang from the + and - button
of the phone and increment the volume in the main patch. It also receive
values of the current main volume.;
#X connect 0 0 1 0;
#X connect 0 0 2 0;
#X connect 1 0 10 0;
#X connect 2 0 9 0;
#X connect 3 0 0 0;
#X connect 4 0 0 0;
#X connect 5 0 3 0;
#X connect 7 0 2 0;
#X connect 8 0 1 0;
#X connect 9 0 18 0;
#X connect 10 0 18 0;
#X connect 11 0 19 0;
#X connect 15 0 6 0;
#X connect 16 0 15 0;
#X connect 16 1 15 1;
#X connect 17 0 2 0;
#X connect 18 0 15 0;
#X connect 19 0 20 0;
#X connect 19 1 21 0;
#X connect 20 0 16 0;
#X connect 21 0 16 0;
#X restore 15 -968 pd step_volume;
#X obj 362 -896 cnv 15 140 200 empty empty Phone_screen 20 0 0 14 -203904
-66577 0;
#X obj 458 -814 bng 20 250 50 0 empty volume_up + 7 10 2 12 -228856
-128992 -1;
#X obj 458 -783 bng 20 250 50 0 empty volume_down _ 7 5 2 12 -228856
-128992 -1;
#X obj 483 -796 tgl 15 0 empty vm M 4 7 2 10 -228856 -86277 -1 0 1
;
#X obj 389 -879 bng 20 250 50 0 empty p1 P1 4 11 2 12 -228856 -128992
-1;
#X obj 415 -879 bng 20 250 50 0 empty p2 P2 4 11 2 12 -228856 -128992
-1;
#X obj 441 -880 bng 20 250 50 0 empty p3 P3 4 11 2 12 -228856 -128992
-1;
#X obj 467 -880 bng 20 250 50 0 empty p4 P4 4 11 2 12 -228856 -128992
-1;
#X obj 430 -848 vradio 20 1 0 6 empty input_select empty 0 -8 0 10
-228856 -1 -1 0;
#X text 408 -748 TV;
#X text 364 -829 Microphone;
#X text 391 -809 Music;
#X text 404 -850 Aux;
#X text 367 -789 Telephone;
#X text 392 -768 Radio;
#X obj 430 -723 bng 20 250 50 0 empty input_select S 8 10 0 10 -262144
-1 -1;
#X obj 252 -994 expr ($f1 + 0.1)* 6;
#X text 245 -638 The index of the sources in the phone app is incorrect
;
#X text 297 -977 need to check if source sel from the phone is precise
;
#X obj -4 -851 cnv 15 350 70 empty empty empty 20 12 0 14 -204786 -66577
0;
#X text -6 -858 comment;
#X text 1 -842 This subpatch receives values from the TouchOSC app
installed on Tom's phone simulating the ConnectLine from Oticon. Then
\, it shows the value received and it routes them to the main patch.
;
#X connect 0 0 11 0;
#X connect 1 0 15 0;
#X connect 1 1 15 1;
#X connect 7 0 3 0;
#X connect 7 1 4 0;
#X connect 7 2 5 0;
#X connect 7 3 6 0;
#X connect 8 0 9 0;
#X connect 9 0 10 0;
#X connect 10 0 14 0;
#X connect 11 0 1 0;
#X connect 11 1 2 0;
#X connect 11 2 7 0;
#X connect 11 3 12 0;
#X connect 11 4 32 0;
#X connect 12 0 10 0;
#X connect 13 0 0 0;
#X connect 32 0 8 0;
#X restore 267 -2 pd phone_osc;
#N canvas 680 87 683 686 test 0;
#X obj -104 -83 cnv 15 100 130 empty empty file_ops 20 12 0 14 -232576
-66577 0;
#X obj -3 -83 cnv 15 100 130 empty empty subject 20 12 0 14 -203904
-66577 0;
#X obj 300 -83 cnv 15 100 130 empty empty n°_clicks 20 12 0 14 -262130
-66577 0;
#X obj 199 -83 cnv 15 100 130 empty empty timer 20 12 0 14 -204786
-66577 0;
#X obj 98 -83 cnv 15 100 130 empty empty tasks 20 12 0 14 -204800 -66577
0;
#X obj 33 159 prepend add;
#X obj 116 158 print TXTfile;
#X obj -101 -60 bng 15 250 50 0 empty empty add_values 17 7 0 10 -4034
-262144 -1;
#X text 14 3 N° subject;
#X text 116 2 N° task;
#X text 215 1 Time;
#X obj -100 -8 bng 15 250 50 0 empty empty save_file 17 7 0 10 -258113
-1 -1;
#X obj 33 106 f;
#X floatatom 109 20 5 0 0 0 - - -;
#X floatatom 210 20 5 0 0 0 - - -;
#X floatatom 9 20 5 0 1000 0 - - -;
#X obj 33 128 pack f f f f;
#X floatatom 305 20 5 0 0 0 - - -;
#X text 310 1 Clicks;
#X obj 9 -19 r subjectID;
#X msg -100 295 \; txt write results/tasks.txt;
#X obj 33 185 s txt;
#X msg -92 240 \; txt clear;
#X obj -92 16 bng 15 250 50 0 empty empty clear 17 7 0 10 -33289 -262144
-1;
#X obj 9 -60 bng 15 250 50 0 empty empty next_subject 17 7 0 10 -4032
-1 -1;
#X obj 9 -40 s nextsubj;
#N canvas 461 378 450 300 tasks 0;
#X obj -70 1 cnv 15 250 200 empty empty Task_selection 20 12 0 14 -233017
-66577 0;
#X obj 56 108 select 0;
#X obj 56 131 bng 15 250 50 0 empty empty empty 17 7 0 10 -262144 -1
-1;
#X obj 14 84 counter 1 7;
#X msg 61 57 1;
#X obj 61 32 loadbang;
#X text 72 57 reset;
#X text 75 129 Test complete;
#X msg 6 57 inc;
#X msg -49 57 dec;
#X text -32 57 rease;
#X text 23 57 rease;
#X obj -49 36 inlet;
#X obj 6 36 inlet;
#X text 37 36 2;
#X text -17 36 1;
#X obj 14 159 outlet;
#X connect 1 0 2 0;
#X connect 3 0 16 0;
#X connect 3 2 1 0;
#X connect 4 0 3 3;
#X connect 5 0 4 0;
#X connect 8 0 3 0;
#X connect 9 0 3 0;
#X connect 12 0 9 0;
#X connect 13 0 8 0;
#X restore 109 -39 pd tasks;
#X obj 109 -60 bng 15 250 50 0 empty empty prev 17 7 0 10 -257985 -1
-1;
#X obj 160 -60 bng 15 250 50 0 empty empty next 17 7 0 10 -257985 -1
-1;
#N canvas 547 348 360 206 timer 0;
#X obj -70 -55 cnv 15 350 200 empty empty timer_for_current_attempt
20 12 0 14 -233017 -66577 0;
#X text 53 -26 start/stop;
#X obj 55 -7 r unlocked;
#X obj 55 46 timer;
#X floatatom 55 98 5 0 0 0 - - -;
#X obj 55 72 / 1000;
#X obj 55 20 select 1 0;
#X msg -61 46 \; clickreset 0;
#X obj -5 -23 tgl 15 0 empty empty test 17 7 0 10 -262144 -1 -1 0 1
;
#X text 93 98 Seconds the MYO stayed unlocked;
#X text -72 79 every new UNLOCK \, reset the timer;
#X obj 55 121 outlet;
#X connect 2 0 6 0;
#X connect 3 0 5 0;
#X connect 4 0 11 0;
#X connect 5 0 4 0;
#X connect 6 0 3 0;
#X connect 6 0 7 0;
#X connect 6 1 3 1;
#X connect 8 0 6 0;
#X restore 210 -59 pd timer;
#N canvas 741 401 294 248 clicks 0;
#X obj 0 -55 cnv 15 200 200 empty empty count_number_actions 20 12
0 14 -233017 -66577 0;
#X floatatom 92 84 5 0 0 0 - - -;
#X obj 92 35 bng 15 250 50 0 empty empty empty 17 7 0 10 -262144 -1
-1;
#X obj 120 62 + 1;
#X obj 92 63 f 0;
#X obj 92 11 change;
#X obj 9 34 r clickreset;
#X obj 92 -12 r gestcount;
#X text 0 145 Every new gesture (UNLOCK \, FIST \, F.SPREAD \, FIST)
the counter increase by 1 Every time the MYO unlock \, counter is reset
;
#X obj 92 104 outlet;
#X connect 1 0 9 0;
#X connect 2 0 4 0;
#X connect 3 0 4 1;
#X connect 4 0 3 0;
#X connect 4 0 1 0;
#X connect 5 0 2 0;
#X connect 6 0 4 0;
#X connect 7 0 5 0;
#X restore 305 -59 pd clicks;
#X text -95 265 clear current data memory (not file \, but be CAREFUL)
;
#X text -100 323 write the content of textfile object inda file;
#X obj -104 466 cnv 15 500 130 empty empty rows→file 20 12 0 14 -233017
-66577 0;
#X obj -98 530 textfile;
#X obj -98 506 r txt;
#N canvas 104 300 659 427 subjectCALC 0;
#X msg -13 292 set \$1;
#X msg -13 355 102;
#X msg 69 305 \; scrollfile 0;
#X obj 22 407 s subjectID;
#X obj 22 381 + 1;
#X obj -13 381 f;
#X obj -13 269 inlet;
#X obj 69 271 inlet;
#X obj -87 169 metro 1;
#X msg -86 51 read results/tasks.txt \, rewind \; scrollfile 1;
#X obj -87 145 r scrollfile;
#X obj -86 27 loadbang;
#X msg -87 191 \; txt bang;
#X obj -86 101 s txt;
#X text 12 354 last subject n°;
#X text 187 28 1- when the patch load \, open the file and put reading
index on the beginning;
#X text 19 269 1;
#X text 100 272 2;
#X obj -85 269 r nextsubj;
#X text 54 380 basic counter;
#X text 193 267 3- receive ID of last subject and start counting from
there every time is sent bang to "nextsubj";
#X text 191 141 2- when the file is open \, scroll every line and send
sbj n° to counter;
#X text 192 5 THIS PATCH CALCULATE CURRENT SUBJECT;
#X connect 0 0 1 0;
#X connect 1 0 5 0;
#X connect 4 0 5 1;
#X connect 4 0 3 0;
#X connect 5 0 4 0;
#X connect 6 0 0 0;
#X connect 7 0 1 0;
#X connect 7 0 2 0;
#X connect 8 0 12 0;
#X connect 9 0 13 0;
#X connect 10 0 8 0;
#X connect 11 0 9 0;
#X connect 18 0 5 0;
#X restore -98 565 pd subjectCALC;
#X text -1 494 FILE WRITING: this object should receive the values
from the tracking of the actions performed with the app and write them
in a .txt file called "tasks.txt" in the '/result' folder. all values
are collected as rows in the memory of the "textfile" object until
the write command is sent. the rows end with a semicolon.;
#X connect 5 0 21 0;
#X connect 7 0 12 0;
#X connect 11 0 20 0;
#X connect 12 0 16 0;
#X connect 13 0 16 1;
#X connect 14 0 16 2;
#X connect 15 0 12 1;
#X connect 16 0 5 0;
#X connect 16 0 6 0;
#X connect 17 0 16 3;
#X connect 19 0 15 0;
#X connect 23 0 22 0;
#X connect 24 0 25 0;
#X connect 26 0 13 0;
#X connect 27 0 26 0;
#X connect 28 0 26 1;
#X connect 29 0 14 0;
#X connect 30 0 17 0;
#X connect 34 0 36 0;
#X connect 34 1 36 1;
#X connect 35 0 34 0;
#X restore 267 -31 pd test;
#N canvas 0 82 1351 686 questionnaire 0;
#X text 18 12 USER INFORMATIONS;
#X text 24 32 Age;
#X text 24 84 Do you use an hearing aid?;
#X floatatom 24 58 5 0 0 0 - - -;
#X obj 24 110 vradio 15 1 0 2 empty empty empty 0 -8 0 10 -262144 -1
-1 0;
#X text 24 150 If yes \, have you ever used the Oticon app before?
;
#X obj 24 176 vradio 15 1 0 2 empty empty empty 0 -8 0 10 -262144 -1
-1 0;
#X text 24 216 Rate your experience with technology;
#X obj 24 242 hradio 15 1 0 7 empty empty empty 0 -8 0 10 -262144 -1
-1 0;
#X text 24 267 Have you ever used the Myo before?;
#X obj 24 293 vradio 15 1 0 2 empty empty empty 0 -8 0 10 -262144 -1
-1 0;
#X text 24 333 Do you work in the field of hearing aids?;
#X obj 24 359 vradio 15 1 0 2 empty empty empty 0 -8 0 10 -262144 -1
-1 0;
#X text 650 9 ANSWER TO THESE SIMPLE QUESTIONS:;
#X text 651 32 Would you use it in the following situations?;
#X obj 656 65 tgl 15 0 empty empty empty 17 7 0 10 -262144 -1 -1 0
1;
#X obj 656 85 tgl 15 0 empty empty empty 17 7 0 10 -262144 -1 -1 0
1;
#X obj 656 105 tgl 15 0 empty empty empty 17 7 0 10 -262144 -1 -1 0
1;
#X obj 656 125 tgl 15 0 empty empty empty 17 7 0 10 -262144 -1 -1 0
1;
#X obj 656 145 tgl 15 0 empty empty empty 17 7 0 10 -262144 -1 -1 0
1;
#X obj 656 165 tgl 15 0 empty empty empty 17 7 0 10 -262144 -1 -1 0
1;
#X obj 656 185 tgl 15 0 empty empty empty 17 7 0 10 -262144 -1 -1 0
1;
#X text 681 64 Office;
#X text 681 84 Public transport;
#X text 681 104 While driving;
#X text 681 124 With relatives;
#X text 681 144 With friends;
#X text 681 163 Work dinner or dating (when you want to be elegant)
;
#X text 681 182 Silent environment (i.e. library or cinema);
#X text 44 106 Yes;
#X text 46 173 Yes;
#X text 48 289 Yes;
#X text 46 355 Yes;
#X text 47 372 No;
#X text 48 306 No;
#X text 46 188 No;
#X text 45 123 No;
#X text 653 220 How much do you find the MYO easy to use?;
#X obj 653 246 hradio 15 1 0 7 empty empty empty 0 -8 0 10 -262144
-1 -1 0;
#X obj 653 291 hradio 15 1 0 7 empty empty empty 0 -8 0 10 -262144
-1 -1 0;
#X obj 653 350 hradio 15 1 0 7 empty empty empty 0 -8 0 10 -262144
-1 -1 0;
#X text 653 324 How much do you find the SMARTPHONE easy to use?;
#X text 652 266 How much do you find it discreet?;
#X obj 653 395 hradio 15 1 0 7 empty empty empty 0 -8 0 10 -262144
-1 -1 0;
#X text 653 371 How much do you find it discreet?;
#X text 653 453 Would you like to give feedback on your experience?
(comments and critics are well accepted);
#X text 662 511 put textbox here;
#X restore 268 -58 pd questionnaire;
#X connect 3 0 2 0;
#X connect 5 0 4 0;
#X connect 8 0 9 0;
#X connect 14 0 13 0;
#X connect 14 1 13 1;
#X connect 18 0 17 0;
#X connect 19 0 18 0;
#X connect 20 0 14 0;
#X connect 30 0 14 1;
