#N canvas 126 167 582 495 10;
#X declare -lib mrpeach;
#X obj -57 51 s global_stop;
#X obj -57 29 bng 15 250 50 0 empty empty empty 17 7 0 10 -262144 -1
-1;
#X msg -60 -64 \; pd dsp \$1;
#X obj -61 -87 tgl 15 0 empty empty empty 17 7 0 10 -262144 -1 -1 0
1;
#X text -33 -91 Turn DSP On/Off;
#X text -35 29 Stop all audio files;
#X obj -60 -19 bng 15 250 50 0 empty empty empty 17 7 0 10 -262144
-1 -1;
#X obj -60 3 s global_start;
#X text -38 -19 Start all audio files;
#X text 124 -80 This patch plays the audio from (at present) 6 different
inputs simultaneously. To select which audio to hear \, choose a number
from 0-5. Each input/audio player will loop it's audio file until it
receives the global stop command. Each audio player has it's own volume
receive which takes input 0 as minimum volume and 1 as max (if we decide
to give each source this function?). There is also a master volume
which takes the same min/max values (which can be implimented if we
decide to go this way?).;
#X text -42 284 Audio Players;
#N canvas 238 53 695 250 osc_things 0;
#X msg -987 -139 47 \$1 \$2 \$3 0 0 0 0 44 105 0 0 0 0 0 \$4;
#X obj -987 -113 unpackOSC;
#X obj -987 -166 udpreceive 7890;
#X obj -903 -85 routeOSC /vol /src /pst;
#X obj -987 -59 print OSCrcv;
#X obj -813 -35 s preset_select;
#X obj -858 -10 s input_select;
#X obj -903 16 expr ( $f1 - 1 ) / 127;
#X obj -858 -59 change;
#X obj -813 -59 change;
#X obj -519 -163 import mrpeach;
#X obj -903 43 s volume_slider;
#X obj -858 -35 - 1;
#X text -684 -86 udpreceive receives 4 ASCII values from C++ via port
7890 (in this case) OSC values are formatted in groups of four so that
unpackOSC can read and translate from 'ASCII list' to values that Pd
understands. 1 = / 2 = v- 3 = o- 4 = l- 5 = 0 6 = 0 7 = 0 8 = 0 9 =
\, 10 =i 11 =0 12 =0 13 =0 14 =0 15 =0 16 = 1-127 (received value to
use with the adress)- routeOSC reads the unpacked OSC data and routes
the values to an output denpendant on the address (first four values
in the ASCII list). vol = volume src = source pst = presets;
#X connect 0 0 1 0;
#X connect 1 0 4 0;
#X connect 1 0 3 0;
#X connect 2 0 0 0;
#X connect 3 0 7 0;
#X connect 3 1 8 0;
#X connect 3 2 9 0;
#X connect 7 0 11 0;
#X connect 8 0 12 0;
#X connect 9 0 5 0;
#X connect 12 0 6 0;
#X restore 207 122 pd osc_things;
#X obj 213 319 s master_volume;
#X obj -27 384 dac~;
#X obj 213 184 vsl 15 128 0 1 0 0 empty empty Volume 0 -9 0 10 -262144
-1 -1 10450 1;
#X obj 208 147 r volume_slider;
#X obj -56 121 vradio 25 1 0 6 empty input_select Audio_Select 0 -8
0 10 -262144 -1 -1 5;
#X text -28 122 Aux;
#X text -28 148 Microphone;
#X text -28 173 Music;
#X text -29 198 Phone;
#X text -29 223 Radio;
#X text -27 248 TV;
#N canvas 578 82 695 584 Audio 0;
#N canvas 10 23 369 393 audio_in_out 0;
#X obj 143 72 readsf~ 2;
#X msg 143 44 open audio_in_out_s.wav;
#X msg 68 37 start;
#X msg -24 35 stop;
#X obj 194 97 bng 15 250 50 0 empty empty empty 17 7 0 10 -262144 -1
-1;
#X obj 184 213 line~;
#X obj 168 247 *~;
#X obj 144 246 *~;
#X obj 184 187 r to_line_1;
#X msg 194 120 \; pd dsp 1 \; to_line_1 0 \, 1 500 \; rpt_audio_1 bang
;
#X obj 68 -9 r rpt_audio_1;
#X obj 68 14 t b b;
#X obj 143 341 outlet~;
#X obj 168 314 outlet~;
#X obj -24 13 r global_stop;
#X obj 70 190 r volume_1;
#X obj 216 95 r global_start;
#X connect 0 0 7 0;
#X connect 0 1 6 0;
#X connect 0 2 4 0;
#X connect 1 0 0 0;
#X connect 2 0 0 0;
#X connect 3 0 0 0;
#X connect 4 0 9 0;
#X connect 5 0 6 1;
#X connect 5 0 7 1;
#X connect 6 0 13 0;
#X connect 7 0 12 0;
#X connect 8 0 5 0;
#X connect 10 0 11 0;
#X connect 11 0 2 0;
#X connect 11 1 1 0;
#X connect 14 0 3 0;
#X connect 15 0 7 0;
#X connect 15 0 6 0;
#X connect 16 0 9 0;
#X restore 350 102 pd audio_in_out;
#N canvas 0 23 369 393 microphone 0;
#X obj 143 72 readsf~ 2;
#X msg 68 37 start;
#X msg -24 35 stop;
#X obj 194 97 bng 15 250 50 0 empty empty empty 17 7 0 10 -262144 -1
-1;
#X obj 184 213 line~;
#X obj 168 247 *~;
#X obj 144 246 *~;
#X obj 68 14 t b b;
#X obj 143 341 outlet~;
#X obj 168 314 outlet~;
#X obj -24 13 r global_stop;
#X msg 143 44 open microphone_s.wav;
#X obj 68 -9 r rpt_audio_2;
#X msg 194 120 \; pd dsp 1 \; to_line_2 0 \, 1 500 \; rpt_audio_2 bang
;
#X obj 184 187 r to_line_2;
#X obj 70 190 r volume_2;
#X obj 215 96 r global_start;
#X connect 0 0 6 0;
#X connect 0 1 5 0;
#X connect 0 2 3 0;
#X connect 1 0 0 0;
#X connect 2 0 0 0;
#X connect 3 0 13 0;
#X connect 4 0 5 1;
#X connect 4 0 6 1;
#X connect 5 0 9 0;
#X connect 6 0 8 0;
#X connect 7 0 1 0;
#X connect 7 1 11 0;
#X connect 10 0 2 0;
#X connect 11 0 0 0;
#X connect 12 0 7 0;
#X connect 14 0 4 0;
#X connect 15 0 6 0;
#X connect 15 0 5 0;
#X connect 16 0 13 0;
#X restore 351 135 pd microphone;
#N canvas 18 23 369 393 music 0;
#X obj 143 72 readsf~ 2;
#X msg 68 37 start;
#X msg -24 35 stop;
#X obj 194 97 bng 15 250 50 0 empty empty empty 17 7 0 10 -262144 -1
-1;
#X obj 184 213 line~;
#X obj 168 247 *~;
#X obj 144 246 *~;
#X obj 68 14 t b b;
#X obj 143 341 outlet~;
#X obj 168 314 outlet~;
#X obj -24 13 r global_stop;
#X obj 68 -9 r rpt_audio_3;
#X msg 143 44 open music_s.wav;
#X msg 194 120 \; pd dsp 1 \; to_line_3 0 \, 1 500 \; rpt_audio_3 bang
;
#X obj 184 187 r to_line_3;
#X obj 70 190 r volume_3;
#X obj 215 96 r global_start;
#X connect 0 0 6 0;
#X connect 0 1 5 0;
#X connect 0 2 3 0;
#X connect 1 0 0 0;
#X connect 2 0 0 0;
#X connect 3 0 13 0;
#X connect 4 0 5 1;
#X connect 4 0 6 1;
#X connect 5 0 9 0;
#X connect 6 0 8 0;
#X connect 7 0 1 0;
#X connect 7 1 12 0;
#X connect 10 0 2 0;
#X connect 11 0 7 0;
#X connect 12 0 0 0;
#X connect 14 0 4 0;
#X connect 15 0 6 0;
#X connect 15 0 5 0;
#X connect 16 0 13 0;
#X restore 351 170 pd music;
#N canvas 74 37 369 393 phone 0;
#X obj 143 72 readsf~ 2;
#X msg 68 37 start;
#X msg -24 35 stop;
#X obj 194 97 bng 15 250 50 0 empty empty empty 17 7 0 10 -262144 -1
-1;
#X obj 184 213 line~;
#X obj 168 247 *~;
#X obj 144 246 *~;
#X obj 68 14 t b b;
#X obj 143 341 outlet~;
#X obj 168 314 outlet~;
#X obj -24 13 r global_stop;
#X obj 68 -9 r rpt_audio_4;
#X msg 143 44 open phone_s.wav;
#X msg 194 120 \; pd dsp 1 \; to_line_4 0 \, 1 500 \; rpt_audio_4 bang
;
#X obj 184 187 r to_line_4;
#X obj 70 190 r volume_4;
#X obj 214 97 r global_start;
#X connect 0 0 6 0;
#X connect 0 1 5 0;
#X connect 0 2 3 0;
#X connect 1 0 0 0;
#X connect 2 0 0 0;
#X connect 3 0 13 0;
#X connect 4 0 5 1;
#X connect 4 0 6 1;
#X connect 5 0 9 0;
#X connect 6 0 8 0;
#X connect 7 0 1 0;
#X connect 7 1 12 0;
#X connect 10 0 2 0;
#X connect 11 0 7 0;
#X connect 12 0 0 0;
#X connect 14 0 4 0;
#X connect 15 0 6 0;
#X connect 15 0 5 0;
#X connect 16 0 13 0;
#X restore 352 203 pd phone;
#N canvas 40 27 369 393 radio 0;
#X obj 143 72 readsf~ 2;
#X msg 68 37 start;
#X msg -24 35 stop;
#X obj 194 97 bng 15 250 50 0 empty empty empty 17 7 0 10 -262144 -1
-1;
#X obj 184 213 line~;
#X obj 168 247 *~;
#X obj 144 246 *~;
#X obj 68 14 t b b;
#X obj 143 341 outlet~;
#X obj 168 314 outlet~;
#X obj -24 13 r global_stop;
#X obj 68 -9 r rpt_audio_5;
#X msg 194 120 \; pd dsp 1 \; to_line_5 0 \, 1 500 \; rpt_audio_5 bang
;
#X obj 184 187 r to_line_5;
#X obj 70 190 r volume_5;
#X msg 143 44 open radio_s.wav;
#X obj 214 95 r global_start;
#X connect 0 0 6 0;
#X connect 0 1 5 0;
#X connect 0 2 3 0;
#X connect 1 0 0 0;
#X connect 2 0 0 0;
#X connect 3 0 12 0;
#X connect 4 0 5 1;
#X connect 4 0 6 1;
#X connect 5 0 9 0;
#X connect 6 0 8 0;
#X connect 7 0 1 0;
#X connect 7 1 15 0;
#X connect 10 0 2 0;
#X connect 11 0 7 0;
#X connect 13 0 4 0;
#X connect 14 0 6 0;
#X connect 14 0 5 0;
#X connect 15 0 0 0;
#X connect 16 0 12 0;
#X restore 353 239 pd radio;
#N canvas 23 23 369 393 tv 0;
#X obj 143 72 readsf~ 2;
#X msg 68 37 start;
#X msg -24 35 stop;
#X obj 194 97 bng 15 250 50 0 empty empty empty 17 7 0 10 -262144 -1
-1;
#X obj 184 213 line~;
#X obj 168 247 *~;
#X obj 144 246 *~;
#X obj 68 14 t b b;
#X obj 143 341 outlet~;
#X obj 168 314 outlet~;
#X obj -24 13 r global_stop;
#X msg 143 44 open tv_s.wav;
#X obj 70 190 r volume_6;
#X obj 184 187 r to_line_6;
#X obj 68 -9 r rpt_audio_6;
#X msg 194 120 \; pd dsp 1 \; to_line_6 0 \, 1 500 \; rpt_audio_6 bang
;
#X obj 216 96 r global_start;
#X connect 0 0 6 0;
#X connect 0 1 5 0;
#X connect 0 2 3 0;
#X connect 1 0 0 0;
#X connect 2 0 0 0;
#X connect 3 0 15 0;
#X connect 4 0 5 1;
#X connect 4 0 6 1;
#X connect 5 0 9 0;
#X connect 6 0 8 0;
#X connect 7 0 1 0;
#X connect 7 1 11 0;
#X connect 10 0 2 0;
#X connect 11 0 0 0;
#X connect 12 0 6 0;
#X connect 12 0 5 0;
#X connect 13 0 4 0;
#X connect 14 0 7 0;
#X connect 16 0 15 0;
#X restore 354 272 pd tv;
#X obj 208 310 multiplex~ 1 2 3 4 5 6;
#X obj 408 310 multiplex~ 1 2 3 4 5 6;
#X obj 222 371 line~;
#X obj 424 369 line~;
#X obj 208 395 *~;
#X obj 408 395 *~;
#X obj 222 349 r to_line_out;
#X obj 424 347 r to_line_out;
#X obj 276 450 *~;
#X obj 327 451 *~;
#X obj 271 399 r master_volume;
#X obj 84 233 r input_select;
#X floatatom 84 258 5 0 5 0 - - -;
#X obj 84 282 bng 15 250 50 0 empty empty empty 17 7 0 10 -262144 -1
-1;
#X msg 17 309 \; to_line_out 0 \, 1 500 \;;
#X obj 276 480 outlet~;
#X obj 327 480 outlet~;
#X obj 42 234 inlet;
#X connect 0 0 6 0;
#X connect 0 1 7 0;
#X connect 1 0 6 1;
#X connect 1 1 7 1;
#X connect 2 0 6 2;
#X connect 2 1 7 2;
#X connect 3 0 6 3;
#X connect 3 1 7 3;
#X connect 4 0 6 4;
#X connect 4 1 7 4;
#X connect 5 0 6 5;
#X connect 5 1 7 5;
#X connect 6 0 10 0;
#X connect 7 0 11 0;
#X connect 8 0 10 1;
#X connect 9 0 11 1;
#X connect 10 0 14 0;
#X connect 11 0 15 0;
#X connect 12 0 8 0;
#X connect 13 0 9 0;
#X connect 14 0 21 0;
#X connect 15 0 22 0;
#X connect 16 0 14 1;
#X connect 16 0 15 1;
#X connect 17 0 18 0;
#X connect 18 0 19 0;
#X connect 18 0 6 0;
#X connect 18 0 7 0;
#X connect 19 0 20 0;
#X connect 23 0 18 0;
#X restore -56 308 pd Audio Players;
#N canvas 649 157 591 450 phone_osc 1;
#X obj 15 -1060 unpackOSC;
#X obj 15 -994 select 1;
#X obj 74 -996 s vm;
#X obj 116 -948 s p1;
#X obj 139 -923 s p2;
#X obj 162 -901 s p3;
#X obj 185 -881 s p4;
#X obj 116 -976 select 1 2 3;
#X obj 252 -970 int;
#X obj 252 -994 expr ($f1 + 0.1)* 7;
#X msg 252 -947 set \$1;
#X msg 252 -918 5;
#X obj 15 -1019 routeOSC /volume /vmute /preset /setsource /source
;
#X obj 193 -933 bng 15 250 50 0 empty empty empty 17 7 0 10 -262144
-1 -1;
#X text 281 -969 need to check if source is precise;
#X obj 15 -1096 udpreceive 9000;
#X obj 252 -894 s input_select;
#N canvas 826 280 379 443 step_volume 0;
#X msg 61 -805 set \$1;
#X msg 145 -779 0.822835;
#X msg -12 -778 0.822835;
#X obj 65 -842 clip 0 1;
#X obj 46 -891 r master_volume;
#X obj 65 -863 r step_volume;
#X msg 58 -670 \; volume_slider \$1 \; step_volume \$1;
#X obj -12 -816 inlet;
#X obj 145 -814 inlet;
#X obj -12 -756 + 0.25;
#X obj 146 -758 - 0.25;
#X obj 207 -814 inlet;
#X text -16 -837 Increase;
#X text 143 -835 Decrease;
#X text 210 -834 Mute;
#X obj 58 -691 *;
#X obj 220 -742 t b f;
#X obj -5 -866 bng 15 250 50 0 empty empty empty 17 7 0 10 -262144
-1 -1;
#X floatatom 58 -724 5 0 0 0 - - -;
#X obj 207 -790 select 0;
#X msg 207 -765 1;
#X msg 252 -765 0;
#X connect 0 0 1 0;
#X connect 0 0 2 0;
#X connect 1 0 10 0;
#X connect 2 0 9 0;
#X connect 3 0 0 0;
#X connect 4 0 0 0;
#X connect 5 0 3 0;
#X connect 7 0 2 0;
#X connect 8 0 1 0;
#X connect 9 0 18 0;
#X connect 10 0 18 0;
#X connect 11 0 19 0;
#X connect 15 0 6 0;
#X connect 16 0 15 0;
#X connect 16 1 15 1;
#X connect 17 0 2 0;
#X connect 18 0 15 0;
#X connect 19 0 20 0;
#X connect 19 1 21 0;
#X connect 20 0 16 0;
#X connect 21 0 16 0;
#X restore 15 -968 pd step_volume;
#X obj 437 -862 cnv 15 140 200 empty empty Phone_screen 20 0 0 14 -203904
-66577 0;
#X obj 533 -797 bng 20 250 50 0 empty volume_up + 7 10 2 12 -228856
-128992 -1;
#X obj 533 -766 bng 20 250 50 0 empty volume_down _ 7 5 2 12 -228856
-128992 -1;
#X obj 558 -779 tgl 15 0 empty vm M 4 7 2 10 -228856 -86277 -1 0 1
;
#X obj 464 -845 bng 20 250 50 0 empty p1 P1 4 11 2 12 -228856 -128992
-1;
#X obj 490 -845 bng 20 250 50 0 empty p2 P2 4 11 2 12 -228856 -128992
-1;
#X obj 516 -846 bng 20 250 50 0 empty p3 P3 4 11 2 12 -228856 -128992
-1;
#X obj 542 -846 bng 20 250 50 0 empty p4 P4 4 11 2 12 -228856 -128992
-1;
#X obj 505 -816 vradio 20 1 0 7 empty input_select empty 0 -8 0 10
-228856 -1 -1 0;
#X text 482 -817 TV;
#X text 439 -797 Microphone;
#X text 483 -756 FM;
#X text 466 -778 Music;
#X text 461 -736 T-coil;
#X text 477 -717 Aux;
#X text 440 -697 Telephone;
#X text 34 -841 The index of the sources in the phone is mixed.;
#X connect 0 0 12 0;
#X connect 1 0 17 0;
#X connect 1 1 17 1;
#X connect 7 0 3 0;
#X connect 7 1 4 0;
#X connect 7 2 5 0;
#X connect 7 3 6 0;
#X connect 8 0 10 0;
#X connect 9 0 8 0;
#X connect 10 0 11 0;
#X connect 11 0 16 0;
#X connect 12 0 1 0;
#X connect 12 1 2 0;
#X connect 12 2 7 0;
#X connect 12 3 13 0;
#X connect 12 4 9 0;
#X connect 13 0 11 0;
#X connect 15 0 0 0;
#X restore 208 95 pd phone_osc;
#X connect 1 0 0 0;
#X connect 3 0 2 0;
#X connect 6 0 7 0;
#X connect 14 0 12 0;
#X connect 15 0 14 0;
#X connect 16 0 23 0;
#X connect 23 0 13 0;
#X connect 23 1 13 1;
