#N canvas 580 23 650 572 10;
#X declare -lib mrpeach;
#X obj 130 -255 cnv 15 375 130 empty empty empty 20 12 0 14 -204786
-66577 0;
#X obj -93 -255 cnv 15 175 175 empty empty empty 20 12 0 14 -261234
-66577 0;
#X obj -78 -106 s global_stop;
#X obj -78 -128 bng 15 250 50 0 empty empty empty 17 7 0 10 -258113
-1 -1;
#X msg -81 -221 \; pd dsp \$1;
#X obj -81 -246 tgl 15 0 empty empty empty 17 7 0 10 -204786 -1 -1
0 1;
#X text -54 -248 Turn DSP On/Off;
#X text -56 -128 Stop all audio files;
#X obj -81 -176 bng 15 250 50 0 empty empty empty 17 7 0 10 -4034 -1
-1;
#X obj -81 -154 s global_start;
#X text -59 -176 Start all audio files;
#X obj -68 -35 cnv 15 115 310 empty empty empty 20 12 0 14 -204800
-66577 0;
#X text -45 149 Audio Players;
#X obj -30 249 dac~;
#N canvas -8 2 1045 584 Audio 0;
#N canvas 367 22 369 393 audio_in_out 0;
#X obj 143 72 readsf~ 2;
#X msg 143 44 open audio_in_out_s.wav;
#X msg 68 37 start;
#X msg -24 35 stop;
#X obj 194 97 bng 15 250 50 0 empty empty empty 17 7 0 10 -262144 -1
-1;
#X obj 184 213 line~;
#X obj 168 247 *~;
#X obj 144 246 *~;
#X obj 184 187 r to_line_1;
#X msg 194 120 \; pd dsp 1 \; to_line_1 0 \, 1 500 \; rpt_audio_1 bang
;
#X obj 68 -9 r rpt_audio_1;
#X obj 68 14 t b b;
#X obj 143 341 outlet~;
#X obj 168 314 outlet~;
#X obj -24 13 r global_stop;
#X obj 70 190 r volume_1;
#X obj 216 95 r global_start;
#X connect 0 0 7 0;
#X connect 0 1 6 0;
#X connect 0 2 4 0;
#X connect 1 0 0 0;
#X connect 2 0 0 0;
#X connect 3 0 0 0;
#X connect 4 0 9 0;
#X connect 5 0 6 1;
#X connect 5 0 7 1;
#X connect 6 0 13 0;
#X connect 7 0 12 0;
#X connect 8 0 5 0;
#X connect 10 0 11 0;
#X connect 11 0 2 0;
#X connect 11 1 1 0;
#X connect 14 0 3 0;
#X connect 15 0 7 0;
#X connect 15 0 6 0;
#X connect 16 0 9 0;
#X restore 353 -243 pd audio_in_out;
#N canvas 0 23 369 393 microphone 0;
#X obj 143 72 readsf~ 2;
#X msg 68 37 start;
#X msg -24 35 stop;
#X obj 194 97 bng 15 250 50 0 empty empty empty 17 7 0 10 -262144 -1
-1;
#X obj 184 213 line~;
#X obj 168 247 *~;
#X obj 144 246 *~;
#X obj 68 14 t b b;
#X obj 143 341 outlet~;
#X obj 168 314 outlet~;
#X obj -24 13 r global_stop;
#X msg 143 44 open microphone_s.wav;
#X obj 68 -9 r rpt_audio_2;
#X msg 194 120 \; pd dsp 1 \; to_line_2 0 \, 1 500 \; rpt_audio_2 bang
;
#X obj 184 187 r to_line_2;
#X obj 70 190 r volume_2;
#X obj 215 96 r global_start;
#X connect 0 0 6 0;
#X connect 0 1 5 0;
#X connect 0 2 3 0;
#X connect 1 0 0 0;
#X connect 2 0 0 0;
#X connect 3 0 13 0;
#X connect 4 0 5 1;
#X connect 4 0 6 1;
#X connect 5 0 9 0;
#X connect 6 0 8 0;
#X connect 7 0 1 0;
#X connect 7 1 11 0;
#X connect 10 0 2 0;
#X connect 11 0 0 0;
#X connect 12 0 7 0;
#X connect 14 0 4 0;
#X connect 15 0 6 0;
#X connect 15 0 5 0;
#X connect 16 0 13 0;
#X restore 354 -210 pd microphone;
#N canvas 18 23 369 393 music 0;
#X obj 143 72 readsf~ 2;
#X msg 68 37 start;
#X msg -24 35 stop;
#X obj 194 97 bng 15 250 50 0 empty empty empty 17 7 0 10 -262144 -1
-1;
#X obj 184 213 line~;
#X obj 168 247 *~;
#X obj 144 246 *~;
#X obj 68 14 t b b;
#X obj 143 341 outlet~;
#X obj 168 314 outlet~;
#X obj -24 13 r global_stop;
#X obj 68 -9 r rpt_audio_3;
#X msg 143 44 open music_s.wav;
#X msg 194 120 \; pd dsp 1 \; to_line_3 0 \, 1 500 \; rpt_audio_3 bang
;
#X obj 184 187 r to_line_3;
#X obj 70 190 r volume_3;
#X obj 215 96 r global_start;
#X connect 0 0 6 0;
#X connect 0 1 5 0;
#X connect 0 2 3 0;
#X connect 1 0 0 0;
#X connect 2 0 0 0;
#X connect 3 0 13 0;
#X connect 4 0 5 1;
#X connect 4 0 6 1;
#X connect 5 0 9 0;
#X connect 6 0 8 0;
#X connect 7 0 1 0;
#X connect 7 1 12 0;
#X connect 10 0 2 0;
#X connect 11 0 7 0;
#X connect 12 0 0 0;
#X connect 14 0 4 0;
#X connect 15 0 6 0;
#X connect 15 0 5 0;
#X connect 16 0 13 0;
#X restore 354 -175 pd music;
#N canvas 74 37 369 393 phone 0;
#X obj 143 72 readsf~ 2;
#X msg 68 37 start;
#X msg -24 35 stop;
#X obj 194 97 bng 15 250 50 0 empty empty empty 17 7 0 10 -262144 -1
-1;
#X obj 184 213 line~;
#X obj 168 247 *~;
#X obj 144 246 *~;
#X obj 68 14 t b b;
#X obj 143 341 outlet~;
#X obj 168 314 outlet~;
#X obj -24 13 r global_stop;
#X obj 68 -9 r rpt_audio_4;
#X msg 143 44 open phone_s.wav;
#X msg 194 120 \; pd dsp 1 \; to_line_4 0 \, 1 500 \; rpt_audio_4 bang
;
#X obj 184 187 r to_line_4;
#X obj 70 190 r volume_4;
#X obj 214 97 r global_start;
#X connect 0 0 6 0;
#X connect 0 1 5 0;
#X connect 0 2 3 0;
#X connect 1 0 0 0;
#X connect 2 0 0 0;
#X connect 3 0 13 0;
#X connect 4 0 5 1;
#X connect 4 0 6 1;
#X connect 5 0 9 0;
#X connect 6 0 8 0;
#X connect 7 0 1 0;
#X connect 7 1 12 0;
#X connect 10 0 2 0;
#X connect 11 0 7 0;
#X connect 12 0 0 0;
#X connect 14 0 4 0;
#X connect 15 0 6 0;
#X connect 15 0 5 0;
#X connect 16 0 13 0;
#X restore 355 -142 pd phone;
#N canvas 40 27 369 393 radio 0;
#X obj 143 72 readsf~ 2;
#X msg 68 37 start;
#X msg -24 35 stop;
#X obj 194 97 bng 15 250 50 0 empty empty empty 17 7 0 10 -262144 -1
-1;
#X obj 184 213 line~;
#X obj 168 247 *~;
#X obj 144 246 *~;
#X obj 68 14 t b b;
#X obj 143 341 outlet~;
#X obj 168 314 outlet~;
#X obj -24 13 r global_stop;
#X obj 68 -9 r rpt_audio_5;
#X msg 194 120 \; pd dsp 1 \; to_line_5 0 \, 1 500 \; rpt_audio_5 bang
;
#X obj 184 187 r to_line_5;
#X obj 70 190 r volume_5;
#X msg 143 44 open radio_s.wav;
#X obj 214 95 r global_start;
#X connect 0 0 6 0;
#X connect 0 1 5 0;
#X connect 0 2 3 0;
#X connect 1 0 0 0;
#X connect 2 0 0 0;
#X connect 3 0 12 0;
#X connect 4 0 5 1;
#X connect 4 0 6 1;
#X connect 5 0 9 0;
#X connect 6 0 8 0;
#X connect 7 0 1 0;
#X connect 7 1 15 0;
#X connect 10 0 2 0;
#X connect 11 0 7 0;
#X connect 13 0 4 0;
#X connect 14 0 6 0;
#X connect 14 0 5 0;
#X connect 15 0 0 0;
#X connect 16 0 12 0;
#X restore 356 -106 pd radio;
#N canvas 23 23 369 393 tv 0;
#X obj 143 72 readsf~ 2;
#X msg 68 37 start;
#X msg -24 35 stop;
#X obj 194 97 bng 15 250 50 0 empty empty empty 17 7 0 10 -262144 -1
-1;
#X obj 184 213 line~;
#X obj 168 247 *~;
#X obj 144 246 *~;
#X obj 68 14 t b b;
#X obj 143 341 outlet~;
#X obj 168 314 outlet~;
#X obj -24 13 r global_stop;
#X msg 143 44 open tv_s.wav;
#X obj 70 190 r volume_6;
#X obj 184 187 r to_line_6;
#X obj 68 -9 r rpt_audio_6;
#X msg 194 120 \; pd dsp 1 \; to_line_6 0 \, 1 500 \; rpt_audio_6 bang
;
#X obj 216 96 r global_start;
#X connect 0 0 6 0;
#X connect 0 1 5 0;
#X connect 0 2 3 0;
#X connect 1 0 0 0;
#X connect 2 0 0 0;
#X connect 3 0 15 0;
#X connect 4 0 5 1;
#X connect 4 0 6 1;
#X connect 5 0 9 0;
#X connect 6 0 8 0;
#X connect 7 0 1 0;
#X connect 7 1 11 0;
#X connect 10 0 2 0;
#X connect 11 0 0 0;
#X connect 12 0 6 0;
#X connect 12 0 5 0;
#X connect 13 0 4 0;
#X connect 14 0 7 0;
#X connect 16 0 15 0;
#X restore 357 -73 pd tv;
#X obj 225 26 line~;
#X obj 427 24 line~;
#X obj 211 50 *~;
#X obj 411 50 *~;
#X obj 225 4 r to_line_out;
#X obj 427 2 r to_line_out;
#X obj 279 105 *~;
#X obj 330 106 *~;
#X obj 274 54 r master_volume;
#X obj 76 -154 r input_select;
#X floatatom 76 -129 5 0 5 0 - - -;
#X obj 76 -105 bng 15 250 50 0 empty empty empty 17 7 0 10 -262144
-1 -1;
#X msg 9 -78 \; to_line_out 0 \, 1 500 \;;
#X obj 279 135 outlet~;
#X obj 330 135 outlet~;
#X obj 34 -153 inlet;
#X text -45 -311 Each audio sub_patch sends a stereo signal from it's
bottom two outputs (1+2 or L+R). The signals are then sent to the [multiplex~]
objects which act as a gate \, only passing the signal from the channel
number it receives. The channel numbers are received from the 'Audio_Select'
radio object in the main patch and the [r Input_select]. To avoid clicks
in the audio \, there is a [line~] object that ramps the gain from
0 to 1 over 500ms every time the channel is changed. This signal is
then sent to the next gain which is multipled by 0 to 1 from the [r
master_volume] before being sent to the left and right [outlet~]'s.
;
#X obj -35 -153 loadbang 0;
#X obj 209 -38 multiplex~ 1 2 3 4 5 6;
#X obj 411 -35 multiplex~ 1 2 3 4 5 6;
#X floatatom 552 -274 5 0 5 0 - - -;
#X obj 552 -250 bng 15 250 50 0 empty empty empty 17 7 0 10 -262144
-1 -1;
#X obj 510 -298 inlet;
#X obj 441 -298 loadbang 0;
#N canvas 1034 101 450 300 bass_boost 1;
#X obj -159 41 hip~ 500;
#X obj -23 52 spigot;
#X obj -168 -12 route 3;
#X obj -168 -35 inlet;
#X obj -168 13 bng 15 250 50 0 empty empty empty 17 7 0 10 -262144
-1 -1;
#X connect 2 0 4 0;
#X connect 3 0 2 0;
#X restore 720 -241 pd bass_boost;
#N canvas 1452 505 450 300 treble_boost 1;
#X obj -171 -177 inlet;
#X obj -169 -129 bng 15 250 50 0 empty empty empty 17 7 0 10 -262144
-1 -1;
#X obj -171 -154 route 4;
#X connect 0 0 2 0;
#X connect 2 0 1 0;
#X restore 819 -242 pd treble_boost;
#X obj 552 -299 r preset_select;
#N canvas 1509 108 450 300 all 1;
#X obj -80 -91 inlet;
#X obj -80 -35 bng 15 250 50 0 empty empty empty 17 7 0 10 -262144
-1 -1;
#X obj -80 -63 route 0;
#X msg -79 -13 0;
#X obj -79 15 s off_preset;
#X connect 0 0 2 0;
#X connect 1 0 3 0;
#X connect 2 0 1 0;
#X connect 3 0 4 0;
#X restore 582 -241 pd all presets off;
#N canvas 963 559 450 300 noise_reduce 1;
#X obj -169 -1 inlet;
#X obj -164 54 bng 15 250 50 0 empty empty empty 17 7 0 10 -262144
-1 -1;
#X obj -166 25 route 1;
#X connect 0 0 2 0;
#X connect 2 0 1 0;
#X restore 721 -266 pd noise_reduce;
#N canvas 503 661 450 300 feedback_killer 1;
#X obj 3 -19 inlet;
#X obj 9 31 bng 15 250 50 0 empty empty empty 17 7 0 10 -262144 -1
-1;
#X obj 5 5 route 2;
#X connect 0 0 2 0;
#X connect 2 0 1 0;
#X restore 820 -267 pd feedback_killer;
#X obj 97 -109 s inputnum;
#X obj 160 -76 r inputnum;
#X obj 464 -90 r inputnum;
#X obj 381 81 multiplex~;
#X connect 0 0 24 0;
#X connect 0 1 25 0;
#X connect 1 0 24 1;
#X connect 1 1 25 1;
#X connect 2 0 24 2;
#X connect 2 1 25 2;
#X connect 3 0 24 3;
#X connect 3 1 25 3;
#X connect 4 0 24 4;
#X connect 4 1 25 4;
#X connect 5 0 24 5;
#X connect 5 1 25 5;
#X connect 6 0 8 1;
#X connect 7 0 9 1;
#X connect 8 0 12 0;
#X connect 9 0 39 0;
#X connect 10 0 6 0;
#X connect 11 0 7 0;
#X connect 12 0 19 0;
#X connect 13 0 20 0;
#X connect 14 0 12 1;
#X connect 14 0 13 1;
#X connect 15 0 16 0;
#X connect 16 0 17 0;
#X connect 16 0 36 0;
#X connect 17 0 18 0;
#X connect 21 0 16 0;
#X connect 23 0 16 0;
#X connect 24 0 8 0;
#X connect 25 0 9 0;
#X connect 26 0 27 0;
#X connect 26 0 33 0;
#X connect 26 0 30 0;
#X connect 26 0 31 0;
#X connect 26 0 34 0;
#X connect 26 0 35 0;
#X connect 28 0 26 0;
#X connect 29 0 26 0;
#X connect 32 0 26 0;
#X connect 37 0 24 0;
#X connect 38 0 25 0;
#X connect 39 0 13 0;
#X restore -59 170 pd Audio Players;
#X obj 262 -22 cnv 15 110 230 empty empty empty 20 12 0 14 -261682
-66577 0;
#N canvas 769 23 676 259 osc_things 0;
#X msg -987 -139 47 \$1 \$2 \$3 0 0 0 0 44 105 0 0 0 0 0 \$4;
#X obj -987 -113 unpackOSC;
#X obj -987 -166 udpreceive 7890;
#X obj -903 -85 routeOSC /vol /src /pst;
#X obj -987 -59 print OSCrcv;
#X obj -813 -35 s preset_select;
#X obj -903 24 expr ( $f1 - 1 ) / 127;
#X obj -858 -59 change;
#X obj -813 -59 change;
#X obj -519 -163 import mrpeach;
#X obj -903 51 s volume_slider;
#X obj -858 -35 - 1;
#X text -684 -86 udpreceive receives 4 ASCII values from C++ via port
7890 (in this case) OSC values are formatted in groups of four so that
unpackOSC can read and translate from 'ASCII list' to values that Pd
understands. 1 = / 2 = v- 3 = o- 4 = l- 5 = 0 6 = 0 7 = 0 8 = 0 9 =
\, 10 =i 11 =0 12 =0 13 =0 14 =0 15 =0 16 = 1-127 (received value to
use with the adress)- routeOSC reads the unpacked OSC data and routes
the values to an output denpendant on the address (first four values
in the ASCII list). vol = volume src = source pst = presets;
#N canvas 48 23 645 424 rotation 0;
#X obj -697 -88 vsl 15 248 0 127 0 0 empty empty empty 0 -9 0 10 -262144
-1 -1 0 1;
#X obj -598 218 print;
#X obj -574 196 spigot;
#X floatatom -575 -57 5 1 200 0 - - -;
#X floatatom -560 61 5 0 0 0 - - -;
#X msg -515 -4 set;
#X obj -515 19 list append;
#X obj -515 41 list trim;
#X obj -575 81 -;
#X obj -575 100 abs;
#X floatatom -497 124 5 0 0 0 - - -;
#X msg -572 156 0;
#X msg -526 156 1;
#X obj -560 -28 delay 20;
#X obj -575 125 moses 0.015;
#X text -678 -73 test slider;
#X text -458 123 minimum change required to pass value here is 1.5%
;
#X text -552 217 Output is thresholded rotation value;
#X text -500 -28 time between comparison values for rotation;
#X obj -961 58;
#X obj -656 -21 inlet;
#X obj -493 197 s input_select;
#X obj -652 35 expr $f1 / 127 * 6;
#X connect 0 0 22 0;
#X connect 2 0 1 0;
#X connect 2 0 21 0;
#X connect 3 0 6 1;
#X connect 3 0 8 0;
#X connect 3 0 13 0;
#X connect 4 0 8 1;
#X connect 5 0 6 0;
#X connect 6 0 7 0;
#X connect 7 0 4 0;
#X connect 8 0 9 0;
#X connect 9 0 10 0;
#X connect 9 0 14 0;
#X connect 11 0 2 1;
#X connect 12 0 2 1;
#X connect 13 0 5 0;
#X connect 13 0 4 0;
#X connect 14 0 11 0;
#X connect 14 1 12 0;
#X connect 20 0 22 0;
#X connect 22 0 2 0;
#X connect 22 0 3 0;
#X restore -858 -5 pd rotation threshold;
#X connect 0 0 1 0;
#X connect 1 0 4 0;
#X connect 1 0 3 0;
#X connect 2 0 0 0;
#X connect 3 0 6 0;
#X connect 3 1 7 0;
#X connect 3 2 8 0;
#X connect 6 0 10 0;
#X connect 7 0 11 0;
#X connect 8 0 5 0;
#X connect 11 0 13 0;
#X restore 269 -12 pd osc_things;
#X obj 275 185 s master_volume;
#X obj 275 50 vsl 85 128 0 1 0 0 empty empty Volume 0 -9 0 10 -204786
-258113 -4160 0 1;
#X obj 270 13 r volume_slider;
#X obj -59 -11 vradio 25 1 0 6 empty input_select Audio_Select 0 -8
0 10 -262144 -1 -1 0;
#X text -31 -10 Aux;
#X text -31 16 Microphone;
#X text -31 41 Music;
#X text -32 66 Phone;
#X text -32 91 Radio;
#X text -30 116 TV;
#X text 138 -251 This patch plays the audio from (at present) 6 different
inputs simultaneously. To select which audio to hear \, choose a source
from the radio object (a number from 0-5). Each input/audio player
will loop it's audio file until it receives the global stop command.
Each audio player has it's own volume receive which takes input 0 as
minimum volume and 1 as max (if we decide to give each source this
function?). There is also a master volume which takes the same min/max
values.;
#X text 125 -263 comment;
#X obj 56 -33 cnv 15 130 150 empty empty empty 20 12 0 14 -257985 -66577
0;
#X obj 61 -10 vradio 25 1 0 4 empty preset_select Preset_Select 0 -8
0 10 -262144 -1 -1 0;
#X text 89 -9 Noise Reduction;
#X text 89 42 Bass Boost;
#X text 88 67 Treble Boost;
#X text 89 17 Feedback Killer;
#X connect 3 0 2 0;
#X connect 5 0 4 0;
#X connect 8 0 9 0;
#X connect 14 0 13 0;
#X connect 14 1 13 1;
#X connect 18 0 17 0;
#X connect 19 0 18 0;
#X connect 20 0 14 0;
#X connect 30 0 14 1;
