#N canvas 39 23 535 496 10;
#X obj 218 31 cnv 15 270 360 empty empty empty 20 12 0 14 -260097 -66577
0;
#X obj 230 369 *~ 0.5;
#X obj 318 369 *~ 0.5;
#X obj 230 342 cycle~ 990;
#X obj 318 341 cycle~ 1020;
#X floatatom 280 171 5 0 0 0 - - -;
#X floatatom 319 172 5 0 0 0 - - -;
#X obj 318 195 / 2;
#X msg 230 272 \$1 500;
#X obj 230 297 line~;
#X obj 230 249 -;
#X msg 318 273 \$1 500;
#X obj 318 298 line~;
#X obj 318 250 +;
#X obj 318 220 t b f;
#X obj 230 223 t b f;
#X obj 319 117 metro 1000;
#X obj 319 94 tgl 15 0 empty empty empty 17 7 0 10 -262144 -1 -1 0
1;
#X obj 319 64 loadbang;
#X msg 280 119 6000;
#X msg 396 116 2;
#X obj 319 147 counter;
#X msg 427 116 0;
#X msg 457 116 23;
#X text 228 37 Feedback Simulator;
#X obj 73 36 cnv 15 100 60 empty empty empty 20 12 0 14 -258113 -66577
0;
#X obj 101 70 noise~;
#X text 100 42 Noise;
#X connect 3 0 1 0;
#X connect 4 0 2 0;
#X connect 5 0 13 0;
#X connect 5 0 10 0;
#X connect 6 0 7 0;
#X connect 7 0 14 0;
#X connect 7 0 15 0;
#X connect 8 0 9 0;
#X connect 9 0 3 0;
#X connect 10 0 8 0;
#X connect 11 0 12 0;
#X connect 12 0 4 0;
#X connect 13 0 11 0;
#X connect 14 0 13 0;
#X connect 14 1 13 1;
#X connect 15 0 10 0;
#X connect 15 1 10 1;
#X connect 16 0 21 0;
#X connect 17 0 16 0;
#X connect 18 0 17 0;
#X connect 18 0 19 0;
#X connect 18 0 20 0;
#X connect 18 0 22 0;
#X connect 18 0 23 0;
#X connect 19 0 5 0;
#X connect 20 0 21 1;
#X connect 21 0 6 0;
#X connect 22 0 21 2;
#X connect 23 0 21 4;
