#N canvas 0 0 687 353 10;
#X obj 165 262 dac~;
#X obj 33 140 catch~ leftaudioout;
#X obj 178 140 catch~ rightaudioout;
#X obj 33 198 s~ \$0-i1;
#X obj 178 195 s~ \$0-i2;
#X obj 101 199 *~ 1;
#X obj 241 195 *~ 1;
#X obj 302 194 vsl 15 90 0.0099 0.99 1 1 empty empty empty 0 -9 0 10
-262144 -1 -1 8900 1;
#X text 318 193 Volume Slider;
#X obj 32 165 hip~ 51;
#X obj 177 166 hip~ 51;
#X text 234 165 Low pass filter to eliminate any ground noise within
samples;
#X text 320 137 Receives audio from readplaysamples trigger system
;
#N canvas 712 101 872 667 playtest 1;
#X msg 443 71 start;
#X obj 443 17 bng 15 250 50 0 empty empty empty 17 7 0 10 -262144 -1
-1;
#X symbolatom 521 -19 0 0 0 0 - - -;
#X obj 482 17 bng 15 250 50 0 empty empty empty 17 7 0 10 -262144 -1
-1;
#X msg 560 67 symbol open;
#X obj 559 122 list trim;
#X obj 496 173 list trim;
#X msg 496 68 set;
#X msg 728 66 open cph.wav;
#X obj 496 151 list append;
#X obj 560 96 list append;
#X obj 521 5 s mySend1;
#X obj 649 67 r mySend1;
#X obj 521 -40 symbol;
#X obj 443 -72 trigger b b b symbol;
#X text 15 -206 Play File Sub-Patch;
#X obj 19 41 bng 15 250 50 0 empty stop1 empty 17 7 0 10 -262144 -1
-1;
#X obj 443 -156 bng 15 250 50 0 empty play1 empty 17 7 0 10 -262144
-1 -1;
#X obj 443 -188 r myPlay1;
#X obj 19 -3 r myStop1;
#X obj 444 373 throw~ leftaudioout;
#X obj 577 372 throw~ rightaudioout;
#X msg 19 94 stop;
#X floatatom 19 232 5 0 0 0 - - -;
#X msg 19 135 0 1000;
#X obj 19 181 line 0 0.1;
#X msg 79 136 0.1;
#X text 518 -192 Recieves 'bang' message from Java to begin playing
note when key is touched;
#X text 83 -11 Recieves 'bang' message from Java to begin fade of note
when key is no longer touched;
#X text 87 179 Sets initial volume and fade;
#X text 581 -126 symbol + filename of audio sample;
#X text 579 -73 Converts filename into bang and symbol messages;
#X obj 443 327 *~ 1;
#X obj 506 325 *~ 1;
#X obj 443 219 readsf~ 4 1e+006;
#X obj 312 204 vsl 15 90 0.0099 0.99 1 1 empty empty empty 0 -9 0 10
-262144 -1 -1 8900 1;
#X text 328 203 Volume Slider;
#X msg 443 -124 symbol cph.wav;
#X connect 0 0 26 0;
#X connect 0 0 34 0;
#X connect 1 0 0 0;
#X connect 2 0 11 0;
#X connect 3 0 4 0;
#X connect 3 0 7 0;
#X connect 3 0 8 0;
#X connect 4 0 10 0;
#X connect 5 0 9 1;
#X connect 6 0 8 0;
#X connect 7 0 9 0;
#X connect 8 0 34 0;
#X connect 9 0 6 0;
#X connect 10 0 5 0;
#X connect 12 0 10 1;
#X connect 13 0 2 0;
#X connect 14 0 1 0;
#X connect 14 1 3 0;
#X connect 14 2 13 0;
#X connect 14 3 13 1;
#X connect 16 0 22 0;
#X connect 17 0 37 0;
#X connect 18 0 17 0;
#X connect 19 0 16 0;
#X connect 22 0 24 0;
#X connect 24 0 25 0;
#X connect 25 0 23 0;
#X connect 25 0 32 1;
#X connect 25 0 33 1;
#X connect 26 0 25 0;
#X connect 32 0 20 0;
#X connect 33 0 21 0;
#X connect 34 0 32 0;
#X connect 34 1 33 0;
#X connect 34 2 33 0;
#X connect 34 3 32 0;
#X connect 35 0 32 1;
#X connect 35 0 33 1;
#X connect 37 0 14 0;
#X restore 33 26 pd playtest;
#X obj 249 33 loadbang;
#X obj 224 34 bng 15 250 50 0 empty empty empty 17 7 0 10 -262144 -1
-1;
#X msg 224 81 \; pd dsp 1;
#X connect 1 0 9 0;
#X connect 1 0 4 0;
#X connect 2 0 10 0;
#X connect 5 0 0 0;
#X connect 6 0 0 1;
#X connect 7 0 6 1;
#X connect 7 0 5 1;
#X connect 9 0 3 0;
#X connect 9 0 5 0;
#X connect 10 0 4 0;
#X connect 10 0 6 0;
#X connect 14 0 16 0;
#X connect 15 0 16 0;
